<svg xmlns="http://www.w3.org/2000/svg" viewBox="0 0 506.09 337.42"><defs><style>.cls-1,.cls-4{fill:#84ad3d;}.cls-2,.cls-7,.cls-8{fill:#38468f;}.cls-3{fill:#8abfd5;}.cls-4{font-size:69.84px;font-family:HelveticaLTStd-Bold, Helvetica LT Std;font-weight:700;letter-spacing:-0.08em;}.cls-5{letter-spacing:-0.06em;}.cls-6{letter-spacing:-0.05em;}.cls-7{letter-spacing:-0.07em;}.cls-8{font-size:19px;font-family:Montserrat-Light, Montserrat;font-weight:300;letter-spacing:0.47em;}.cls-9{letter-spacing:0.44em;}.cls-10{letter-spacing:0.44em;}.cls-11{letter-spacing:0.44em;}.cls-12{letter-spacing:0.43em;}.cls-13{letter-spacing:0.47em;}</style></defs><g id="Capa_2" data-name="Capa 2"><g id="Capa_1-2" data-name="Capa 1"><path class="cls-1" d="M111.38,90.63c3.7-25.49,32.85-26.35,52.91-22.28,19.6,3.4,38.49,12.44,56.72,19.15,9,3.3,17.91,6.33,27.38,7.47,17.67,1.32,34.31-4.46,50.19-12.37a219.24,219.24,0,0,0,25.08-15.25c-12.92,21.53-35.71,39.67-61.53,45a66.12,66.12,0,0,1-21.19,1,118.13,118.13,0,0,1-19.54-4.52C195,100.22,172.7,85.66,147,79.53c-14.29-3.46-27.34-2.57-35.65,11.1Z"/><path class="cls-2" d="M128.76,53.15A22.07,22.07,0,0,1,130.15,47a20,20,0,0,1,3.52-5.7,22,22,0,0,1,5.41-4.45,29.47,29.47,0,0,1,6.46-2.73A45.65,45.65,0,0,1,159,32.47a63.6,63.6,0,0,1,6.52.38c2.15.23,4.27.49,6.33.86l3.06.55,1.51.29c.53.11,1.07.2,1.6.33,1.06.25,2.11.52,3.17.79s2,.56,3,.85c4,1.17,8,2.48,11.74,3.89,7.61,2.77,14.84,5.8,21.89,8.4,3.53,1.31,7,2.53,10.45,3.52.86.27,1.72.53,2.57.74s1.72.46,2.55.65l2.48.57c.82.16,1.53.21,2.3.35l1.14.18c.4,0,.8,0,1.2.07l2.42.17c1.65-.08,3.3,0,5-.16.84-.09,1.69-.1,2.54-.21l2.57-.37a25.5,25.5,0,0,0,2.59-.45c.87-.18,1.74-.31,2.61-.53a110.53,110.53,0,0,0,20.93-7.45c1.71-.85,3.49-1.63,5.19-2.57L287,42l2.57-1.44c3.48-1.9,6.84-4,10.4-6.17a66.33,66.33,0,0,1-6.74,10.38A79.36,79.36,0,0,1,284.72,54a79.11,79.11,0,0,1-21.36,14.22,65.11,65.11,0,0,1-12.79,4.16,61.28,61.28,0,0,1-6.86,1.07c-1.17.08-2.35.12-3.54.17-.59,0-1.18,0-1.78,0l-1.82-.09c-1.2-.08-2.48-.11-3.62-.27l-3.38-.51c-1.12-.17-2.17-.42-3.26-.64s-2.15-.47-3.2-.74c-2.13-.52-4.18-1.15-6.24-1.76s-4-1.34-6-2.08c-15.72-5.85-29.16-13.66-43-18.68-1.78-.63-3.53-1.3-5.28-1.86s-3.49-1.08-5.23-1.56A46,46,0,0,0,147,43.77a20.45,20.45,0,0,0-9.88,1.83,19.18,19.18,0,0,0-4.49,3A32,32,0,0,0,128.76,53.15Z"/><path class="cls-3" d="M156.57,16.47a14.9,14.9,0,0,1,.6-4.57,14.09,14.09,0,0,1,2.32-4.39A15.94,15.94,0,0,1,163.38,4a22.22,22.22,0,0,1,4.74-2.28A33.74,33.74,0,0,1,178,0a58.31,58.31,0,0,1,9.36.55l2.2.31,1.09.17c.38.07.78.13,1.16.22l2.33.51c.77.18,1.48.36,2.21.56,2.91.77,5.73,1.64,8.43,2.59,5.42,1.86,10.48,3.93,15.3,5.7,2.41.9,4.77,1.74,7.06,2.42,1.15.4,2.28.66,3.39,1l1.61.4c.52.12.94.16,1.41.26l.7.15c.25,0,.5,0,.76.06l1.52.17c1.06,0,2.11.12,3.22,0a49.32,49.32,0,0,0,6.86-.71,84.68,84.68,0,0,0,14.62-4.21c1.23-.49,2.51-1,3.75-1.51l1.9-.8,1.9-.86c2.57-1.13,5.09-2.43,7.83-3.69a40.9,40.9,0,0,1-4.18,7.9,51.51,51.51,0,0,1-5.65,7.07,52.81,52.81,0,0,1-15,11,45.31,45.31,0,0,1-9.34,3.3,44.33,44.33,0,0,1-5.09.89c-.88.07-1.77.12-2.65.17-.45,0-.89,0-1.34,0l-1.38,0c-.91,0-1.88-.06-2.74-.17l-2.5-.35c-.83-.12-1.59-.3-2.39-.45s-1.58-.33-2.34-.52c-1.56-.37-3-.81-4.53-1.25s-2.91-1-4.3-1.49a165.88,165.88,0,0,1-15.63-7l-7.13-3.51L187,17.29c-.28-.14-.56-.25-.84-.37l-.93-.39-1.83-.78c-2.4-1-4.72-1.94-7-2.72a34.92,34.92,0,0,0-6.79-1.69,14.08,14.08,0,0,0-6.62.48,12.87,12.87,0,0,0-3.3,1.75A23,23,0,0,0,156.57,16.47Z"/><text class="cls-4" transform="translate(0 193.26)">Sma<tspan class="cls-5" x="131.79" y="0">r</tspan><tspan class="cls-6" x="155.11" y="0">t</tspan><tspan class="cls-7" x="174.6" y="0">S</tspan><tspan class="cls-2" x="216.01" y="0">hipping</tspan></text><text class="cls-8" transform="translate(22.66 234.21)">O<tspan class="cls-9" x="24.87" y="0">P</tspan><tspan x="46.76" y="0">TIMIZING </tspan><tspan class="cls-10" x="220.29" y="0">Y</tspan><tspan x="240.54" y="0">OUR </tspan><tspan class="cls-11" x="325.89" y="0">W</tspan><tspan class="cls-12" x="355.01" y="0">A</tspan><tspan class="cls-13" x="376.58" y="0">Y</tspan></text></g></g></svg>