<svg xmlns="http://www.w3.org/2000/svg" viewBox="-0.03 -10.03 558.42 85.02"><defs><style>.cls-1{font-size:69.84px;font-family:HelveticaLTStd-Bold, Helvetica LT Std;font-weight:700;letter-spacing:-0.08em;}.cls-1,.cls-6{fill:#84ad3d;}.cls-2{letter-spacing:-0.06em;}.cls-3{letter-spacing:-0.05em;}.cls-4,.cls-5{fill:#38468f;}.cls-4{letter-spacing:-0.07em;}.cls-7{fill:#8abfd5;}</style></defs><g id="Capa_2" data-name="Capa 2"><g id="Capa_1-2" data-name="Capa 1"><text class="cls-1" transform="translate(126.72 57.97)">Sma<tspan class="cls-2" x="131.79" y="0">r</tspan><tspan class="cls-3" x="155.11" y="0">t</tspan><tspan class="cls-4" x="174.6" y="0">S</tspan><tspan class="cls-5" x="216.01" y="0">hipping</tspan></text><path class="cls-6" d="M0,59.9a17.2,17.2,0,0,1,1.12-4.29,14.48,14.48,0,0,1,2.55-3.9,15.23,15.23,0,0,1,3.81-3A20.36,20.36,0,0,1,12,46.91a32.17,32.17,0,0,1,9.35-1,58.46,58.46,0,0,1,9,1c1.48.28,2.81.53,4.33.87s3,.78,4.36,1.21c2.83.82,5.57,1.81,8.26,2.8,5.36,2,10.51,4.16,15.55,6,2.53.93,5,1.81,7.51,2.52A43.53,43.53,0,0,0,77.57,62l.85.13.88,0,1.78.09c1.2-.08,2.41,0,3.64-.16.61-.07,1.23-.09,1.85-.18l1.86-.31a18,18,0,0,0,1.87-.35c.62-.14,1.25-.25,1.87-.42a75.17,75.17,0,0,0,14.88-5.66,130.12,130.12,0,0,0,14.43-8.62,57.09,57.09,0,0,1-26.24,23.2,45.82,45.82,0,0,1-8.94,2.8,39.27,39.27,0,0,1-4.76.71c-.81,0-1.63.07-2.45.1-.41,0-.82,0-1.23,0l-1.26-.07c-.83,0-1.7-.08-2.5-.19l-2.34-.38c-1.53-.29-3.05-.58-4.52-1a79.28,79.28,0,0,1-8.57-2.7C47.6,65,38,59.45,28,56a78,78,0,0,0-7.58-2.31,32.14,32.14,0,0,0-7.51-1A14.67,14.67,0,0,0,5.76,54.3a14.26,14.26,0,0,0-3.14,2.31A20.58,20.58,0,0,0,0,59.9Z"/><path class="cls-5" d="M10,38.45a12.9,12.9,0,0,1,.76-3.55,11.31,11.31,0,0,1,2-3.3,14.11,14.11,0,0,1,6.82-4.19,26.74,26.74,0,0,1,7.72-1,48,48,0,0,1,7.39.68c1.21.22,2.28.39,3.54.66s2.44.61,3.57.94c2.32.64,4.56,1.43,6.74,2.21C52.85,32.51,57,34.21,61,35.7c2,.75,4,1.45,5.95,2A34.93,34.93,0,0,0,72.59,39l.64.11c.22,0,.45,0,.68.05l1.37.09c.93,0,1.86,0,2.83-.07.47,0,1,0,1.44-.12L81,38.89c1-.12,2-.34,3-.54a63.64,63.64,0,0,0,12-4.17,120.56,120.56,0,0,0,12-6.48A44.2,44.2,0,0,1,87,47.27a37,37,0,0,1-7.35,2.41,33.87,33.87,0,0,1-4,.63l-2,.09c-.34,0-.68,0-1,0l-1,0c-.7,0-1.43-.05-2.09-.15l-1.94-.3c-1.26-.23-2.52-.46-3.73-.78a61.58,61.58,0,0,1-7-2.2c-9-3.35-16.68-7.86-24.58-10.74-4-1.5-8-2.81-11.86-3a11.62,11.62,0,0,0-5.62,1,10.9,10.9,0,0,0-2.58,1.71A16.51,16.51,0,0,0,10,38.45Z"/><path class="cls-7" d="M25.86,17.46a8.17,8.17,0,0,1,1.64-5.18,9.72,9.72,0,0,1,1-1.13c.39-.32.79-.65,1.21-1s.88-.5,1.34-.75.92-.39,1.4-.58a24.82,24.82,0,0,1,11.07-.7c.85.11,1.69.22,2.57.38s1.79.4,2.61.61c1.67.43,3.29.92,4.84,1.46,3.11,1.06,6,2.24,8.75,3.25,1.37.51,2.72,1,4,1.38a28.3,28.3,0,0,0,3.62.94,21.94,21.94,0,0,0,7.38-.12,48.93,48.93,0,0,0,8.36-2.32c2.87-1.05,5.75-2.37,8.88-3.82A28.89,28.89,0,0,1,80.39,25,26.2,26.2,0,0,1,75,26.9a21.3,21.3,0,0,1-6,.63,28.53,28.53,0,0,1-5.76-.85,47.12,47.12,0,0,1-5.08-1.57c-6.47-2.41-11.71-5.64-17-7.85a33.9,33.9,0,0,0-7.83-2.6,7.87,7.87,0,0,0-3.76.21A9.18,9.18,0,0,0,25.86,17.46Z"/></g></g></svg>