<svg xmlns="http://www.w3.org/2000/svg" viewBox="0 0 559.45 87.43"><defs><style>.cls-1{fill:#6fae2d;}.cls-2{fill:#2d4492;}.cls-3{fill:#6cc1d7;}</style></defs><g id="Capa_2" data-name="Capa 2"><g id="Capa_1-2" data-name="Capa 1"><path class="cls-1" d="M139.51,36c.07,2.79,1.46,8.1,10.61,8.1,5,0,10.48-1.19,10.48-6.5,0-3.91-3.77-5-9.08-6.21l-5.38-1.26c-8.1-1.88-15.92-3.7-15.92-14.74,0-5.58,3-15.43,19.27-15.43C164.86,0,169,10.06,169.05,16.2H159c-.28-2.23-1.12-7.54-10.26-7.54-4,0-8.73,1.47-8.73,6,0,3.91,3.21,4.75,5.3,5.23l12.22,3c6.85,1.67,13.13,4.47,13.13,13.48,0,15.08-15.36,16.41-19.76,16.41-18.3,0-21.44-10.55-21.44-16.76Z"/><path class="cls-1" d="M225.76,51.47H216V28.91c0-5.51-2.44-7.33-5.31-7.33-4.89,0-6.63,3.21-6.63,7.61V51.47h-9.78V29.12c0-3.14,0-7.54-5.87-7.54-4.61,0-6.07,3.21-6.07,7.26V51.47h-9.78V14.32h9.36v5.44H182a11.05,11.05,0,0,1,10.54-6.42c5.38,0,7.83,1.95,10.34,5.94,1.26-1.82,4-5.94,9.92-5.94,7.26,0,12.92,4.26,12.92,12.43Z"/><path class="cls-1" d="M259.56,44.21c0,4.4,1,5.38,2.17,5.79v1.47H251.18a16.23,16.23,0,0,1-.91-4.4c-2.23,2.31-5.38,5.38-12,5.38-5.59,0-11.31-3.14-11.31-10.83,0-7.26,4.61-11,10.82-11.87l8.8-1.33c1.54-.2,3.42-.83,3.42-2.93,0-4.12-3.91-4.33-6.42-4.33-4.89,0-5.73,3-6,5.17h-9.43c1.12-11.38,9-13,16.62-13,5.24,0,14.81,1.61,14.81,10.75ZM250,33.38c-1,.77-2.58,1.4-6.63,2-3.63.63-6.64,1.54-6.64,5.59a4.27,4.27,0,0,0,4.54,4.47c4.33,0,8.73-2.8,8.73-7.34Z"/><path class="cls-1" d="M263,14.32h9.36v6.42h.14c2-3.77,4.26-7.4,10.2-7.4a16.81,16.81,0,0,1,1.88.14V23.4a18.11,18.11,0,0,0-2.79-.14c-7.61,0-9,4.75-9,8.87V51.47H263Z"/><path class="cls-1" d="M297.34,14.32h6.08v7h-6.08V41.49c0,2.16.07,3,4.05,3,.63,0,1.33-.07,2-.14v7.4c-1.54.07-3.07.14-4.61.14h-1.26c-8.45,0-10-3.21-10-8V21.3h-5v-7h5V4.26h9.78Z"/><path class="cls-2" d="M314.1,36c.07,2.79,1.47,8.1,10.62,8.1,5,0,10.48-1.19,10.48-6.5,0-3.91-3.78-5-9.08-6.21l-5.38-1.26c-8.1-1.88-15.92-3.7-15.92-14.74,0-5.58,3-15.43,19.27-15.43,15.37,0,19.49,10.06,19.56,16.2H333.59c-.28-2.23-1.12-7.54-10.27-7.54-4,0-8.73,1.47-8.73,6,0,3.91,3.22,4.75,5.31,5.23l12.22,3c6.85,1.67,13.13,4.47,13.13,13.48,0,15.08-15.36,16.41-19.76,16.41-18.3,0-21.44-10.55-21.44-16.76Z"/><path class="cls-2" d="M380.87,51.47h-9.78V28.91c0-2.72-.14-7.33-6.35-7.33-4.33,0-7.68,2.93-7.68,8.59v21.3h-9.78V1.33h9.78V19.14h.14c1.25-3.08,5.44-5.8,10.75-5.8,7.26,0,12.92,4.26,12.92,12.43Z"/><path class="cls-2" d="M394.77,9.92H385V.84h9.78Zm0,4.4V51.47H385V14.32Z"/><path class="cls-2" d="M408,19.7h.14c1.81-2.94,4.54-6.36,11.1-6.36,8.17,0,15.44,6.28,15.44,19.14,0,10.19-4.61,20-15.65,20-6.84,0-9.29-3.7-10.47-5.73h-.14V65.93h-9.78V14.32H408Zm8.59,24.72c6.28,0,8-6.85,8-11.25,0-5.86-2.1-11.38-8.31-11.38-6.7,0-8.31,6-8.31,11.94C408,39.25,410.41,44.42,416.63,44.42Z"/><path class="cls-2" d="M445.47,19.7h.14c1.82-2.94,4.54-6.36,11.11-6.36,8.17,0,15.43,6.28,15.43,19.14,0,10.19-4.61,20-15.64,20-6.85,0-9.29-3.7-10.48-5.73h-.14V65.93h-9.78V14.32h9.36Zm8.59,24.72c6.29,0,8-6.85,8-11.25,0-5.86-2.1-11.38-8.32-11.38-6.7,0-8.31,6-8.31,11.94C445.47,39.25,447.85,44.42,454.06,44.42Z"/><path class="cls-2" d="M483.81,9.92H474V.84h9.77Zm0,4.4V51.47H474V14.32Z"/><path class="cls-2" d="M521.53,51.47h-9.78V28.91c0-2.72-.14-7.33-6.35-7.33-4.34,0-7.69,2.93-7.69,8.59v21.3h-9.77V14.32h9.35v5.44h.14a12,12,0,0,1,11.18-6.42c7.26,0,12.92,4.26,12.92,12.43Z"/><path class="cls-2" d="M559.45,14.32v35.2c0,6.42-.49,17.11-18.79,17.11-7.68,0-15.78-3.29-16.2-11.18h10.62c.42,1.89,1.18,3.77,6.84,3.77,5.24,0,7.75-2.51,7.75-8.52V46.23l-.14-.14c-1.6,2.87-4,5.59-9.91,5.59-8.94,0-16-6.21-16-19.2s7.27-19.14,15.44-19.14c6.91,0,9.71,4.05,10.89,6.49h.14V14.32Zm-18,29.12c6.64,0,8.31-5.66,8.31-10.75,0-6-2.93-10.9-8.38-10.9-3.63,0-7.68,2.65-7.68,11.31C533.68,37.85,535.64,43.44,541.43,43.44Z"/><path class="cls-1" d="M0,53.4a17.13,17.13,0,0,1,1.12-4.28,14.38,14.38,0,0,1,2.55-3.91,15.46,15.46,0,0,1,3.81-3A20.36,20.36,0,0,1,12,40.41a32.15,32.15,0,0,1,9.35-1,59.73,59.73,0,0,1,9,1c1.48.28,2.81.53,4.33.88s3,.78,4.36,1.2c2.83.83,5.57,1.82,8.26,2.81,5.36,2,10.51,4.15,15.55,6,2.53.94,5,1.81,7.51,2.52a42.55,42.55,0,0,0,7.23,1.63l.85.13c.29,0,.58,0,.88,0l1.78.09c1.2-.07,2.41,0,3.64-.16.61-.06,1.23-.09,1.85-.18l1.86-.3c.62-.07,1.24-.23,1.87-.36s1.25-.25,1.87-.42a75.17,75.17,0,0,0,14.88-5.66,130,130,0,0,0,14.43-8.61A57.07,57.07,0,0,1,95.24,63.27a45.15,45.15,0,0,1-8.94,2.8,39.28,39.28,0,0,1-4.76.72c-.81,0-1.63.06-2.45.09-.41,0-.82,0-1.23,0l-1.26-.07c-.83,0-1.7-.07-2.5-.19l-2.34-.37c-1.53-.3-3.05-.58-4.52-1a81.59,81.59,0,0,1-8.57-2.71C47.6,58.49,38,53,28,49.54c-2.55-.9-5.06-1.69-7.58-2.31a32.14,32.14,0,0,0-7.51-1,14.56,14.56,0,0,0-7.11,1.6,13.65,13.65,0,0,0-3.14,2.31A21,21,0,0,0,0,53.4Z"/><path class="cls-2" d="M10,32a13,13,0,0,1,.76-3.55,11.31,11.31,0,0,1,2-3.3,14.17,14.17,0,0,1,6.82-4.18,26.07,26.07,0,0,1,7.72-1,46.77,46.77,0,0,1,7.39.68c1.21.21,2.28.39,3.54.65s2.44.62,3.57.94c2.32.65,4.56,1.43,6.74,2.21C52.85,26,57,27.72,61,29.21c2,.74,4,1.44,5.95,2a35,35,0,0,0,5.62,1.33l.64.11.68,0,1.37.09c.93,0,1.86,0,2.83-.07.47,0,1,0,1.44-.12L81,32.4c1-.12,2-.35,3-.55a62.94,62.94,0,0,0,12-4.17,122.53,122.53,0,0,0,12-6.47A44.3,44.3,0,0,1,87,40.78a36.36,36.36,0,0,1-7.35,2.4,30.11,30.11,0,0,1-4,.63c-.68,0-1.36.07-2,.09-.34,0-.68,0-1,0l-1,0c-.7,0-1.43-.06-2.09-.15l-1.94-.3c-1.26-.24-2.52-.47-3.73-.78a65.87,65.87,0,0,1-7-2.2c-9-3.36-16.68-7.86-24.58-10.74-4-1.51-8-2.81-11.86-3a11.73,11.73,0,0,0-5.62,1,10.9,10.9,0,0,0-2.58,1.71A16.51,16.51,0,0,0,10,32Z"/><path class="cls-3" d="M25.86,11A8.17,8.17,0,0,1,27.5,5.78a9.72,9.72,0,0,1,1-1.13c.39-.31.79-.64,1.21-1s.88-.51,1.34-.76.92-.38,1.4-.57a24.82,24.82,0,0,1,11.07-.71c.85.12,1.69.23,2.57.38s1.79.41,2.61.62c1.67.42,3.29.92,4.84,1.45,3.11,1.07,6,2.24,8.75,3.25,1.37.51,2.72,1,4,1.38a28.3,28.3,0,0,0,3.62.94,21.68,21.68,0,0,0,7.38-.12,48,48,0,0,0,8.36-2.32c2.87-1,5.75-2.37,8.88-3.81A28.91,28.91,0,0,1,80.39,18.48,25.07,25.07,0,0,1,75,20.4,21,21,0,0,1,69,21a27.19,27.19,0,0,1-5.76-.85,43,43,0,0,1-5.08-1.57c-6.47-2.4-11.71-5.64-17-7.85a33.38,33.38,0,0,0-7.83-2.59,7.74,7.74,0,0,0-3.76.2A9.38,9.38,0,0,0,25.86,11Z"/><path class="cls-2" d="M133.86,80.68c0,4.41-2.67,6.75-5.94,6.75s-5.76-2.62-5.76-6.5c0-4.06,2.53-6.72,6-6.72S133.86,76.89,133.86,80.68Zm-9.93.21c0,2.74,1.48,5.19,4.08,5.19s4.11-2.41,4.11-5.32c0-2.55-1.33-5.2-4.09-5.2S123.93,78.08,123.93,80.89Z"/><path class="cls-2" d="M145,74.57a18.36,18.36,0,0,1,3.17-.25,5.27,5.27,0,0,1,3.59,1.06,3.43,3.43,0,0,1,1.13,2.68,3.81,3.81,0,0,1-1,2.74,5.33,5.33,0,0,1-3.92,1.41,5.43,5.43,0,0,1-1.33-.12v5.13H145Zm1.65,6.17a5.34,5.34,0,0,0,1.37.14c2,0,3.21-1,3.21-2.74s-1.19-2.51-3-2.51a7.45,7.45,0,0,0-1.56.13Z"/><path class="cls-2" d="M166.45,75.82h-3.89v-1.4H172v1.4h-3.92v11.4h-1.67Z"/><path class="cls-2" d="M184.06,74.42v12.8h-1.65V74.42Z"/><path class="cls-2" d="M206.69,81.6c-.09-1.79-.21-3.94-.19-5.53h-.06c-.43,1.5-1,3.1-1.61,4.86l-2.26,6.21h-1.26l-2.07-6.09c-.6-1.81-1.12-3.46-1.48-5h0c0,1.59-.13,3.74-.24,5.66l-.34,5.49h-1.58l.89-12.8h2.11l2.18,6.19c.54,1.58,1,3,1.3,4.31h.05c.33-1.29.78-2.7,1.35-4.31l2.28-6.19h2.11l.8,12.8H207Z"/><path class="cls-2" d="M221.78,74.42v12.8h-1.65V74.42Z"/><path class="cls-2" d="M232.74,86.25l7.11-10.39V75.8h-6.5V74.42H242v1l-7.06,10.36v0h7.16v1.39h-9.35Z"/><path class="cls-2" d="M254.72,74.42v12.8h-1.65V74.42Z"/><path class="cls-2" d="M266.56,87.22V74.42h1.81l4.1,6.47a36.57,36.57,0,0,1,2.3,4.16h0c-.16-1.71-.19-3.27-.19-5.27V74.42h1.55v12.8H274.5l-4.06-6.5a40.34,40.34,0,0,1-2.4-4.27l-.05,0c.09,1.61.13,3.15.13,5.28v5.47Z"/><path class="cls-2" d="M297.76,86.65a11.88,11.88,0,0,1-3.94.7,6,6,0,0,1-6.57-6.46c0-3.81,2.64-6.61,6.94-6.61a8,8,0,0,1,3.19.59l-.4,1.35a6.72,6.72,0,0,0-2.83-.55A4.79,4.79,0,0,0,289,80.82c0,3.25,2,5.17,4.94,5.17a5.34,5.34,0,0,0,2.2-.35V81.83h-2.6V80.5h4.22Z"/><path class="cls-2" d="M324.19,87.22V81.79l-4.05-7.37H322L323.83,78c.49,1,.87,1.75,1.27,2.64h0c.36-.84.8-1.67,1.29-2.64l1.84-3.53h1.88l-4.29,7.35v5.45Z"/><path class="cls-2" d="M350.82,80.68c0,4.41-2.67,6.75-5.94,6.75s-5.76-2.62-5.76-6.5c0-4.06,2.53-6.72,5.95-6.72S350.82,76.89,350.82,80.68Zm-9.93.21c0,2.74,1.48,5.19,4.08,5.19s4.11-2.41,4.11-5.32c0-2.55-1.33-5.2-4.09-5.2S340.89,78.08,340.89,80.89Z"/><path class="cls-2" d="M363.57,74.42V82c0,2.86,1.28,4.08,3,4.08,1.9,0,3.11-1.25,3.11-4.08V74.42h1.67v7.46c0,3.93-2.07,5.55-4.84,5.55s-4.6-1.5-4.6-5.47V74.42Z"/><path class="cls-2" d="M383.16,74.59a17.39,17.39,0,0,1,3.18-.27,5.2,5.2,0,0,1,3.7,1.05,3.17,3.17,0,0,1,1,2.43,3.35,3.35,0,0,1-2.42,3.26v.06a3.21,3.21,0,0,1,1.89,2.59,20.39,20.39,0,0,0,1,3.51h-1.71a16.46,16.46,0,0,1-.85-3.06c-.38-1.77-1.07-2.43-2.57-2.49h-1.55v5.55h-1.66Zm1.66,5.83h1.69c1.76,0,2.88-1,2.88-2.43,0-1.66-1.19-2.38-2.94-2.4a6.39,6.39,0,0,0-1.63.16Z"/><path class="cls-2" d="M416.72,87.22l-3.25-12.8h1.75l1.52,6.47c.38,1.6.72,3.19.95,4.43h0c.21-1.27.61-2.79,1-4.44l1.71-6.46h1.73l1.55,6.49c.37,1.52.71,3,.9,4.39h0c.26-1.4.62-2.83,1-4.42l1.69-6.46h1.69l-3.63,12.8h-1.72l-1.62-6.67a40.6,40.6,0,0,1-.84-4.18h0a41.29,41.29,0,0,1-1,4.18l-1.82,6.67Z"/><path class="cls-2" d="M440.64,83.19l-1.33,4H437.6L442,74.42h2l4.37,12.8h-1.76l-1.37-4Zm4.2-1.29-1.26-3.69c-.28-.83-.47-1.59-.66-2.33h0c-.19.76-.4,1.54-.65,2.32L441,81.9Z"/><path class="cls-2" d="M460.49,87.22V81.79l-4-7.37h1.88l1.8,3.53c.5,1,.88,1.75,1.27,2.64h0c.36-.84.8-1.67,1.29-2.64l1.85-3.53h1.88l-4.3,7.35v5.45Z"/></g></g></svg>