<svg xmlns="http://www.w3.org/2000/svg" viewBox="0 0 212.28 113.77"><defs><style>.cls-1{fill:#84ad3d;}.cls-2{fill:#38468f;}.cls-3{fill:#8abfd5;}</style></defs><g id="Capa_2" data-name="Capa 2"><g id="Capa_1-2" data-name="Capa 1"><path class="cls-1" d="M0,90.63C3.7,65.14,32.85,64.28,52.91,68.35c19.6,3.4,38.49,12.44,56.73,19.15,9,3.3,17.91,6.33,27.37,7.47,17.68,1.32,34.32-4.46,50.19-12.37a218.37,218.37,0,0,0,25.08-15.25c-12.91,21.53-35.71,39.67-61.53,45a66.11,66.11,0,0,1-21.19,1A118,118,0,0,1,110,108.81c-26.44-8.59-48.7-23.15-74.38-29.28C21.36,76.07,8.31,77,0,90.63Z"/><path class="cls-2" d="M17.39,53.15A22.41,22.41,0,0,1,18.77,47a20.42,20.42,0,0,1,3.52-5.7,22.07,22.07,0,0,1,5.42-4.45,29.27,29.27,0,0,1,6.46-2.73,45.58,45.58,0,0,1,13.41-1.63,64,64,0,0,1,6.53.38c2.14.23,4.26.49,6.32.86l3.06.55,1.51.29c.54.11,1.07.2,1.6.33,1.06.25,2.12.52,3.18.79s2,.56,3,.85c4,1.17,7.94,2.48,11.73,3.89,7.61,2.77,14.85,5.8,21.9,8.4,3.52,1.31,7,2.53,10.44,3.52.86.27,1.72.53,2.57.74s1.72.46,2.55.65l2.48.57c.82.16,1.53.21,2.31.35l1.14.18c.39,0,.8,0,1.2.07l2.41.17c1.65-.08,3.3,0,5-.16.84-.09,1.69-.1,2.54-.21l2.57-.37a26.19,26.19,0,0,0,2.6-.45c.86-.18,1.74-.31,2.6-.53a110,110,0,0,0,20.93-7.45c1.72-.85,3.49-1.63,5.19-2.57L175.59,42l2.57-1.44c3.47-1.9,6.83-4,10.39-6.17a64.93,64.93,0,0,1-6.74,10.38A80.16,80.16,0,0,1,173.35,54,79.16,79.16,0,0,1,152,68.21a64.89,64.89,0,0,1-12.79,4.16,61.46,61.46,0,0,1-6.85,1.07c-1.18.08-2.36.12-3.54.17-.6,0-1.18,0-1.78,0l-1.83-.09c-1.2-.08-2.48-.11-3.62-.27l-3.38-.51c-1.12-.17-2.17-.42-3.26-.64s-2.15-.47-3.2-.74c-2.13-.52-4.17-1.15-6.23-1.76s-4-1.34-6-2.08c-15.71-5.85-29.16-13.66-43-18.68C54.7,48.25,53,47.58,51.21,47s-3.5-1.08-5.23-1.56a46.09,46.09,0,0,0-10.34-1.69,20.41,20.41,0,0,0-9.87,1.83,19.23,19.23,0,0,0-4.5,3A31.28,31.28,0,0,0,17.39,53.15Z"/><path class="cls-3" d="M45.2,16.47a14.58,14.58,0,0,1,.59-4.57,14.09,14.09,0,0,1,2.32-4.39A15.94,15.94,0,0,1,52,4a22.45,22.45,0,0,1,4.74-2.28A33.74,33.74,0,0,1,66.61,0,58.31,58.31,0,0,1,76,.57l2.21.31,1.08.17c.39.07.78.13,1.17.22l2.32.51c.78.18,1.48.36,2.22.56,2.9.77,5.72,1.64,8.42,2.59,5.42,1.86,10.48,3.93,15.31,5.7,2.41.9,4.76,1.74,7,2.42,1.15.4,2.29.66,3.39,1l1.61.4c.52.12.94.16,1.42.26l.7.15c.24,0,.5,0,.75.06l1.53.17c1,0,2.11.12,3.21,0a49.32,49.32,0,0,0,6.86-.71,84.18,84.18,0,0,0,14.62-4.21c1.23-.49,2.51-1,3.75-1.51l1.91-.8L157.39,7c2.57-1.13,5.09-2.43,7.83-3.69a40.36,40.36,0,0,1-4.18,7.9,51.51,51.51,0,0,1-5.65,7.07,52.67,52.67,0,0,1-15,11,45.1,45.1,0,0,1-9.34,3.3,44,44,0,0,1-5.09.89c-.87.07-1.76.12-2.65.17-.44,0-.88,0-1.33,0l-1.39,0c-.9,0-1.88-.06-2.73-.17l-2.5-.35c-.84-.12-1.6-.3-2.4-.45s-1.57-.33-2.34-.52c-1.55-.37-3-.81-4.52-1.25s-2.92-1-4.31-1.49a164.53,164.53,0,0,1-15.62-7L79,18.91l-3.37-1.62c-.27-.14-.56-.25-.84-.37l-.93-.39L72,15.75c-2.4-1-4.72-1.94-7-2.72a35,35,0,0,0-6.78-1.69,14.11,14.11,0,0,0-6.63.48,12.66,12.66,0,0,0-3.29,1.75A21.9,21.9,0,0,0,45.2,16.47Z"/></g></g></svg>