<svg id="Capa_1" data-name="Capa 1" xmlns="http://www.w3.org/2000/svg" viewBox="0 0 613.19 458.11"><defs><style>.cls-1{fill:#84ad3d;}.cls-2{font-size:12px;font-family:CocogoosePro-Thin, CocogoosePro Thin;font-weight:200;letter-spacing:0.01em;}.cls-12,.cls-16,.cls-2,.cls-21{fill:#fff;}.cls-3{letter-spacing:0.03em;}.cls-4{letter-spacing:0.02em;}.cls-5{letter-spacing:0.02em;}.cls-6{letter-spacing:0.02em;}.cls-7{letter-spacing:-0.06em;}.cls-8{letter-spacing:0.02em;}.cls-9{letter-spacing:0.02em;}.cls-10{letter-spacing:0.03em;}.cls-11{letter-spacing:-0.05em;}.cls-12{font-size:69.84px;font-family:HelveticaLTStd-Bold, Helvetica LT Std;font-weight:700;letter-spacing:-0.08em;}.cls-13{letter-spacing:-0.06em;}.cls-14{letter-spacing:-0.05em;}.cls-15{letter-spacing:-0.07em;}.cls-16{font-size:19px;font-family:Montserrat-Light, Montserrat;font-weight:300;letter-spacing:0.47em;}.cls-17{letter-spacing:0.44em;}.cls-18{letter-spacing:0.44em;}.cls-19{letter-spacing:0.44em;}.cls-20{letter-spacing:0.43em;}</style></defs><rect class="cls-1" y="0.77" width="613.19" height="461.74"/><text class="cls-2" transform="translate(23.47 445.12)">T<tspan class="cls-3" x="6.12" y="0">ipo</tspan><tspan class="cls-4" x="23.24" y="0">g</tspan><tspan class="cls-5" x="30.18" y="0">r</tspan><tspan class="cls-3" x="34.34" y="0">afía: Hel</tspan><tspan class="cls-6" x="76.62" y="0">v</tspan><tspan class="cls-3" x="82.57" y="0">etica </tspan><tspan class="cls-7" x="110.87" y="0">L</tspan><tspan class="cls-3" x="115.77" y="0">T </tspan><tspan class="cls-8" x="124.88" y="0">S</tspan><tspan class="cls-4" x="131.06" y="0">t</tspan><tspan class="cls-9" x="135.26" y="0">d </tspan><tspan class="cls-10" x="145.17" y="0">B</tspan><tspan class="cls-9" x="152.03" y="0">old</tspan><tspan class="cls-11" x="169.11" y="0"> </tspan></text><text class="cls-12" transform="translate(151.45 246.76)">Sma<tspan class="cls-13" x="131.79" y="0">r</tspan><tspan class="cls-14" x="155.11" y="0">t</tspan><tspan class="cls-15" x="174.6" y="0">S</tspan><tspan x="216.01" y="0">hipping</tspan></text><text class="cls-16" transform="translate(153.52 281.33)">O<tspan class="cls-17" x="24.87" y="0">P</tspan><tspan x="46.76" y="0">TIMIZING </tspan><tspan class="cls-18" x="220.29" y="0">Y</tspan><tspan x="240.54" y="0">OUR </tspan><tspan class="cls-19" x="325.89" y="0">W</tspan><tspan class="cls-20" x="355.01" y="0">A</tspan><tspan x="376.58" y="0">Y</tspan></text><path class="cls-21" d="M37,243.43A15.34,15.34,0,0,1,38,239.74a12.64,12.64,0,0,1,2.27-3.32,15,15,0,0,1,7.22-4,28.19,28.19,0,0,1,8.09-.73,53.5,53.5,0,0,1,7.79,1c1.28.26,2.45.49,3.77.8s2.55.69,3.77,1.07c2.46.74,4.85,1.62,7.19,2.5s4.64,1.83,6.92,2.71,4.5,1.82,6.74,2.62,4.44,1.61,6.65,2.22a37.49,37.49,0,0,0,6.47,1.43l.77.11.79,0,1.61.06c1.08-.07,2.16,0,3.26-.17a43.21,43.21,0,0,0,6.63-1.2A64.09,64.09,0,0,0,131,239.61a102.52,102.52,0,0,0,12.44-7.86,51.34,51.34,0,0,1-23.19,19.78,40.2,40.2,0,0,1-7.75,2.35,37,37,0,0,1-4.11.6l-2.1.07-1.06,0-1.08-.07c-.71-.05-1.45-.07-2.14-.17l-2-.33c-1.32-.26-2.64-.51-3.91-.85-2.57-.66-5-1.48-7.45-2.36-9.64-3.57-18.12-8.41-27-11.32-4.5-1.5-9-2.78-13.44-2.71a13,13,0,0,0-6.32,1.6,12.65,12.65,0,0,0-2.71,2.13A18.82,18.82,0,0,0,37,243.43Z"/><path class="cls-21" d="M45.69,224.63a10.65,10.65,0,0,1,2.56-5.84,12.72,12.72,0,0,1,1.25-1.18c.47-.33,1-.67,1.45-1s1-.51,1.57-.75,1.08-.37,1.63-.56c4.45-1.18,8.94-.75,13,0,1,.19,2,.37,3.08.61s2.1.55,3.09.84c2,.58,4,1.28,5.85,2s3.76,1.46,5.59,2.16,3.62,1.45,5.41,2.09,3.53,1.28,5.28,1.77a30.31,30.31,0,0,0,5.06,1.16,28.25,28.25,0,0,0,10.24-.76,54.32,54.32,0,0,0,10.51-3.92,94.64,94.64,0,0,0,10.28-6,40,40,0,0,1-18.48,16.6,32.73,32.73,0,0,1-6.36,2,28.84,28.84,0,0,1-3.39.52l-1.74.07a13.28,13.28,0,0,1-1.78,0c-.59,0-1.22-.05-1.78-.13L96.38,234c-1.09-.21-2.17-.41-3.21-.69a63.62,63.62,0,0,1-6.09-1.92c-7.84-2.91-14.62-6.84-21.66-9.28a34.82,34.82,0,0,0-10.6-2.42,10.14,10.14,0,0,0-5,1.07A11.93,11.93,0,0,0,45.69,224.63Z"/><path class="cls-21" d="M59.64,206.22a7.26,7.26,0,0,1,1.57-4.38,8.78,8.78,0,0,1,4.27-2.79,21.73,21.73,0,0,1,9.51-.41c.73.12,1.45.22,2.21.37s1.54.37,2.25.56c1.45.37,2.84.85,4.19,1.32s2.66,1,3.94,1.46,2.52,1,3.75,1.43,2.41.89,3.59,1.22a21.21,21.21,0,0,0,3.31.82,19.08,19.08,0,0,0,6.72-.26,41,41,0,0,0,7.35-2.29c2.48-1,5-2.28,7.57-3.65a26.18,26.18,0,0,1-12.61,12.63,22.69,22.69,0,0,1-4.62,1.59,18.83,18.83,0,0,1-5.14.49,24.68,24.68,0,0,1-4.91-.75c-1.53-.38-3-.86-4.39-1.36-5.61-2.09-10.26-4.9-15-6.75a27,27,0,0,0-7.06-2.07,7,7,0,0,0-3.38.39A8.26,8.26,0,0,0,59.64,206.22Z"/></svg>