<svg id="Capa_1" data-name="Capa 1" xmlns="http://www.w3.org/2000/svg" viewBox="0 0 622.97 467.6"><defs><style>.cls-1{font-size:69.84px;font-family:HelveticaLTStd-Bold, Helvetica LT Std;font-weight:700;letter-spacing:-0.08em;}.cls-1,.cls-6{fill:#84ad3d;}.cls-2{letter-spacing:-0.06em;}.cls-3{letter-spacing:-0.05em;}.cls-4,.cls-5,.cls-8{fill:#38468f;}.cls-4{letter-spacing:-0.07em;}.cls-7{fill:#8abfd5;}.cls-8{font-size:19px;font-family:Montserrat-Light, Montserrat;font-weight:300;letter-spacing:0.47em;}.cls-9{letter-spacing:0.44em;}.cls-10{letter-spacing:0.44em;}.cls-11{letter-spacing:0.44em;}.cls-12{letter-spacing:0.43em;}.cls-13{letter-spacing:0.47em;}.cls-14{font-size:12px;fill:#222220;font-family:CocogoosePro-Thin, CocogoosePro Thin;font-weight:200;letter-spacing:0.01em;}.cls-15{letter-spacing:0.03em;}.cls-16{letter-spacing:0.02em;}.cls-17{letter-spacing:0.02em;}.cls-18{letter-spacing:0.02em;}.cls-19{letter-spacing:-0.06em;}.cls-20{letter-spacing:0.02em;}.cls-21{letter-spacing:0.02em;}.cls-22{letter-spacing:0.03em;}.cls-23{letter-spacing:-0.05em;}</style></defs><text class="cls-1" transform="translate(164.08 248.32)">Sma<tspan class="cls-2" x="131.79" y="0">r</tspan><tspan class="cls-3" x="155.11" y="0">t</tspan><tspan class="cls-4" x="174.6" y="0">S</tspan><tspan class="cls-5" x="216.01" y="0">hipping</tspan></text><path class="cls-6" d="M37.36,250.25A16.61,16.61,0,0,1,38.48,246,14.38,14.38,0,0,1,41,242.06a15.28,15.28,0,0,1,3.81-3,20.36,20.36,0,0,1,4.51-1.81,32.17,32.17,0,0,1,9.35-1,59.73,59.73,0,0,1,9,1c1.48.28,2.81.53,4.33.87s3,.79,4.35,1.21c2.84.82,5.58,1.81,8.26,2.8,5.37,2,10.52,4.16,15.56,6,2.53.94,5,1.81,7.51,2.52a42.55,42.55,0,0,0,7.23,1.63l.84.13c.29,0,.59,0,.89.05l1.77.09c1.21-.08,2.42,0,3.65-.16.61-.06,1.23-.09,1.85-.18l1.85-.3c.63-.07,1.25-.23,1.87-.36s1.26-.25,1.88-.42a75.4,75.4,0,0,0,14.88-5.66,128.6,128.6,0,0,0,14.43-8.62,57.09,57.09,0,0,1-26.24,23.2,45.15,45.15,0,0,1-8.94,2.8,39.28,39.28,0,0,1-4.76.72c-.81,0-1.63.06-2.45.09l-1.23,0-1.26-.07c-.83-.05-1.71-.07-2.5-.19l-2.34-.37c-1.53-.3-3.05-.59-4.52-1A81.59,81.59,0,0,1,96,259.45C85,255.34,75.35,249.8,65.32,246.39a78,78,0,0,0-7.58-2.31,32.14,32.14,0,0,0-7.51-1,14.67,14.67,0,0,0-7.11,1.59A14,14,0,0,0,40,247,20.49,20.49,0,0,0,37.36,250.25Z"/><path class="cls-5" d="M47.31,228.8a13,13,0,0,1,.76-3.55,11.49,11.49,0,0,1,2-3.3,14.26,14.26,0,0,1,6.83-4.19,26.74,26.74,0,0,1,7.72-1,47.73,47.73,0,0,1,7.38.69c1.22.21,2.29.38,3.55.65s2.43.62,3.57.94c2.32.64,4.56,1.43,6.74,2.21,4.36,1.59,8.5,3.3,12.52,4.78,2,.75,4,1.45,6,2a34.93,34.93,0,0,0,5.62,1.32l.64.11c.22,0,.45,0,.68.05l1.37.09c.93,0,1.86,0,2.82-.07.48,0,1,0,1.45-.12l1.46-.21c1-.11,2-.34,3-.54a63.64,63.64,0,0,0,12-4.17,120.56,120.56,0,0,0,12-6.48,44.29,44.29,0,0,1-20.86,19.57,35.76,35.76,0,0,1-7.35,2.41,32.18,32.18,0,0,1-4,.63l-2,.09c-.34,0-.68,0-1,0l-1,0c-.7,0-1.44-.06-2.09-.15l-2-.3c-1.26-.24-2.51-.47-3.72-.78a65.16,65.16,0,0,1-7-2.2c-9-3.36-16.68-7.87-24.58-10.74-4-1.51-8-2.81-11.86-3a11.73,11.73,0,0,0-5.62,1,10.9,10.9,0,0,0-2.58,1.71A16.51,16.51,0,0,0,47.31,228.8Z"/><path class="cls-7" d="M63.22,207.81a8.22,8.22,0,0,1,1.63-5.18,10.84,10.84,0,0,1,1-1.13c.39-.32.79-.64,1.21-.95s.88-.51,1.34-.76.92-.39,1.4-.58a25,25,0,0,1,11.07-.7c.85.12,1.68.22,2.57.38s1.79.4,2.61.61c1.67.43,3.29.92,4.84,1.46,3.1,1.06,6,2.24,8.75,3.25,1.37.51,2.71,1,4,1.38a28.3,28.3,0,0,0,3.62.94,21.68,21.68,0,0,0,7.38-.12,48,48,0,0,0,8.36-2.32c2.87-1.05,5.75-2.37,8.88-3.81a28.89,28.89,0,0,1-14.17,15.05,25.33,25.33,0,0,1-5.37,1.92,21.34,21.34,0,0,1-6,.63,27.19,27.19,0,0,1-5.76-.85,43,43,0,0,1-5.08-1.57c-6.47-2.41-11.71-5.64-17-7.85A33.9,33.9,0,0,0,70.7,205a7.87,7.87,0,0,0-3.76.21A9.28,9.28,0,0,0,63.22,207.81Z"/><text class="cls-8" transform="translate(158.84 284.68)">O<tspan class="cls-9" x="24.87" y="0">P</tspan><tspan x="46.76" y="0">TIMIZING </tspan><tspan class="cls-10" x="220.29" y="0">Y</tspan><tspan x="240.54" y="0">OUR </tspan><tspan class="cls-11" x="325.89" y="0">W</tspan><tspan class="cls-12" x="355.01" y="0">A</tspan><tspan class="cls-13" x="376.58" y="0">Y</tspan></text><text class="cls-14" transform="translate(25.02 449.31)">T<tspan class="cls-15" x="6.12" y="0">ipo</tspan><tspan class="cls-16" x="23.24" y="0">g</tspan><tspan class="cls-17" x="30.18" y="0">r</tspan><tspan class="cls-15" x="34.34" y="0">afía: Hel</tspan><tspan class="cls-18" x="76.62" y="0">v</tspan><tspan class="cls-15" x="82.57" y="0">etica </tspan><tspan class="cls-19" x="110.87" y="0">L</tspan><tspan class="cls-15" x="115.77" y="0">T </tspan><tspan class="cls-20" x="124.88" y="0">S</tspan><tspan class="cls-16" x="131.06" y="0">t</tspan><tspan class="cls-21" x="135.26" y="0">d </tspan><tspan class="cls-22" x="145.17" y="0">B</tspan><tspan class="cls-21" x="152.03" y="0">old</tspan><tspan class="cls-23" x="169.11" y="0"> </tspan></text></svg>