<svg id="Capa_1" data-name="Capa 1" xmlns="http://www.w3.org/2000/svg" viewBox="0 0 588.66 461.74"><defs><style>.cls-1{fill:#38468f;}.cls-17,.cls-2,.cls-3,.cls-7{fill:#fff;}.cls-3{font-size:69.84px;font-family:HelveticaLTStd-Bold, Helvetica LT Std;font-weight:700;letter-spacing:-0.08em;}.cls-4{letter-spacing:-0.06em;}.cls-5{letter-spacing:-0.05em;}.cls-6{letter-spacing:-0.07em;}.cls-7{font-size:12px;font-family:CocogoosePro-Thin, CocogoosePro Thin;font-weight:200;letter-spacing:0.01em;}.cls-8{letter-spacing:0.03em;}.cls-9{letter-spacing:0.02em;}.cls-10{letter-spacing:0.02em;}.cls-11{letter-spacing:0.02em;}.cls-12{letter-spacing:-0.06em;}.cls-13{letter-spacing:0.02em;}.cls-14{letter-spacing:0.02em;}.cls-15{letter-spacing:0.03em;}.cls-16{letter-spacing:-0.05em;}.cls-17{font-size:19px;font-family:Montserrat-Light, Montserrat;font-weight:300;letter-spacing:0.47em;}.cls-18{letter-spacing:0.44em;}.cls-19{letter-spacing:0.44em;}.cls-20{letter-spacing:0.44em;}.cls-21{letter-spacing:0.43em;}.cls-22{letter-spacing:0.47em;}</style></defs><rect class="cls-1" width="588.66" height="461.74"/><path class="cls-2" d="M195.19,205.93a28.39,28.39,0,0,1,2-7.44,24.85,24.85,0,0,1,4.48-6.76,26.72,26.72,0,0,1,6.65-5.16,35.66,35.66,0,0,1,7.84-3.1,55.81,55.81,0,0,1,16.27-1.62c2.68.06,5.32.3,7.93.62s5.2.69,7.72,1.18l3.75.74,1.86.38c.64.14,1.3.26,1.94.43,1.28.32,2.57.67,3.85,1s2.49.72,3.73,1.09c4.92,1.5,9.73,3.16,14.4,4.93,9.37,3.51,18.35,7.32,27.19,10.57,4.42,1.64,8.81,3.17,13.17,4.41,1.09.34,2.17.66,3.26.91s2.19.58,3.25.82l3.19.69a14.77,14.77,0,0,0,1.52.23l1.49.2,1.5.21c.51,0,1,0,1.55.08l3.14.16c1.06,0,2.12-.08,3.19-.09a25.13,25.13,0,0,0,3.22-.22c1.07-.12,2.16-.16,3.24-.33l3.27-.52c1.1-.13,2.19-.41,3.28-.64s2.2-.46,3.29-.75a130.44,130.44,0,0,0,26-10.06c2.1-1.12,4.28-2.17,6.35-3.41l3.16-1.79,3.12-1.9c4.2-2.52,8.23-5.34,12.45-8.15a100.55,100.55,0,0,1-46,40.18,81.36,81.36,0,0,1-15.56,4.85,75,75,0,0,1-8.28,1.21c-1.41.09-2.84.13-4.26.17-.71,0-1.42.05-2.13,0l-2.19-.12c-1.43-.11-2.95-.15-4.33-.35l-4.08-.63c-1.36-.22-2.64-.53-4-.8s-2.62-.58-3.9-.92c-2.59-.64-5.08-1.41-7.6-2.17s-4.94-1.64-7.33-2.55c-19.3-7.17-36.15-16.78-53.73-22.74-2.24-.75-4.45-1.53-6.67-2.19s-4.43-1.25-6.64-1.8a56.26,56.26,0,0,0-13.19-1.69,25.79,25.79,0,0,0-12.49,2.91,24.17,24.17,0,0,0-5.45,4.11A38.7,38.7,0,0,0,195.19,205.93Z"/><path class="cls-2" d="M212.57,168.45a22.43,22.43,0,0,1,1.39-6.17,20,20,0,0,1,3.52-5.7,22.21,22.21,0,0,1,5.41-4.45,29.47,29.47,0,0,1,6.46-2.73,45.69,45.69,0,0,1,13.42-1.63,60.87,60.87,0,0,1,6.52.39c2.15.22,4.27.48,6.33.85l3.06.55,1.51.29c.53.11,1.07.2,1.6.33,1.06.25,2.11.52,3.17.79s2,.56,3.06.85c4,1.17,7.94,2.48,11.73,3.89,7.61,2.77,14.84,5.8,21.9,8.4,3.52,1.31,7,2.53,10.44,3.52.86.27,1.72.53,2.57.74s1.72.46,2.55.65l2.48.57c.82.16,1.53.21,2.3.35l1.15.18c.39,0,.79,0,1.19.07l2.42.17c1.65-.08,3.3,0,5-.16.84-.09,1.69-.1,2.54-.21l2.57-.37a25.5,25.5,0,0,0,2.59-.45c.87-.18,1.74-.31,2.61-.53A110.28,110.28,0,0,0,363,161.19c1.71-.85,3.49-1.63,5.19-2.57l2.6-1.34,2.57-1.44c3.48-1.9,6.84-4.05,10.4-6.17A66.33,66.33,0,0,1,377,160.05a79.34,79.34,0,0,1-29.83,23.46,65.11,65.11,0,0,1-12.79,4.16,61.28,61.28,0,0,1-6.86,1.07c-1.17.08-2.35.12-3.54.17-.59,0-1.18,0-1.78,0l-1.82-.09c-1.2-.08-2.48-.11-3.62-.27l-3.38-.51c-1.12-.17-2.17-.42-3.26-.64s-2.15-.47-3.2-.74c-2.13-.52-4.18-1.15-6.23-1.76s-4-1.34-6-2.08c-15.72-5.85-29.16-13.66-43-18.68-1.78-.63-3.53-1.3-5.28-1.86s-3.49-1.08-5.23-1.56a46,46,0,0,0-10.33-1.69A20.45,20.45,0,0,0,221,160.9a19.18,19.18,0,0,0-4.49,3A32,32,0,0,0,212.57,168.45Z"/><path class="cls-2" d="M240.38,131.77a14.9,14.9,0,0,1,.6-4.57,14.09,14.09,0,0,1,2.32-4.39,15.94,15.94,0,0,1,3.89-3.56,22.22,22.22,0,0,1,4.74-2.28,33.74,33.74,0,0,1,9.87-1.65,58.31,58.31,0,0,1,9.36.55l2.2.31,1.09.17c.39.07.78.13,1.16.22l2.33.51c.77.18,1.48.36,2.22.56,2.9.77,5.72,1.64,8.42,2.59,5.42,1.86,10.48,3.93,15.3,5.7,2.41.9,4.77,1.74,7.06,2.42,1.15.4,2.28.66,3.39,1l1.61.4c.52.12.94.16,1.41.26l.7.15c.25,0,.5,0,.76.06l1.52.17c1.06,0,2.11.12,3.22,0a49.32,49.32,0,0,0,6.86-.71A84.68,84.68,0,0,0,345,125.47c1.23-.49,2.51-1,3.75-1.51l1.9-.8,1.9-.86c2.57-1.13,5.09-2.43,7.83-3.69a40.36,40.36,0,0,1-4.18,7.9,51.51,51.51,0,0,1-5.65,7.07,53,53,0,0,1-15,11,45.88,45.88,0,0,1-9.34,3.29,44,44,0,0,1-5.09.89c-.88.07-1.76.12-2.65.17l-1.34.05-1.38-.06c-.91,0-1.88-.06-2.74-.17l-2.5-.35c-.83-.12-1.59-.3-2.39-.45s-1.58-.33-2.34-.52c-1.56-.37-3-.81-4.53-1.25s-2.91-1-4.3-1.49a165.88,165.88,0,0,1-15.63-7l-7.13-3.51-3.37-1.62c-.28-.14-.56-.25-.84-.37l-.93-.39-1.83-.77c-2.4-1-4.72-1.95-7-2.73a34.92,34.92,0,0,0-6.79-1.69,14,14,0,0,0-6.62.49,12.53,12.53,0,0,0-3.3,1.74A23,23,0,0,0,240.38,131.77Z"/><text class="cls-3" transform="translate(83.81 307.56)">Sma<tspan class="cls-4" x="131.79" y="0">r</tspan><tspan class="cls-5" x="155.11" y="0">t</tspan><tspan class="cls-6" x="174.6" y="0">S</tspan><tspan x="216.01" y="0">hipping</tspan></text><text class="cls-7" transform="translate(13.19 443.36)">T<tspan class="cls-8" x="6.12" y="0">ipo</tspan><tspan class="cls-9" x="23.24" y="0">g</tspan><tspan class="cls-10" x="30.18" y="0">r</tspan><tspan class="cls-8" x="34.34" y="0">afía: Hel</tspan><tspan class="cls-11" x="76.62" y="0">v</tspan><tspan class="cls-8" x="82.57" y="0">etica </tspan><tspan class="cls-12" x="110.87" y="0">L</tspan><tspan class="cls-8" x="115.77" y="0">T </tspan><tspan class="cls-13" x="124.88" y="0">S</tspan><tspan class="cls-9" x="131.06" y="0">t</tspan><tspan class="cls-14" x="135.26" y="0">d </tspan><tspan class="cls-15" x="145.17" y="0">B</tspan><tspan class="cls-14" x="152.03" y="0">old</tspan><tspan class="cls-16" x="169.11" y="0"> </tspan></text><text class="cls-17" transform="translate(108.57 348.45)">O<tspan class="cls-18" x="24.87" y="0">P</tspan><tspan x="46.76" y="0">TIMIZING </tspan><tspan class="cls-19" x="220.29" y="0">Y</tspan><tspan x="240.54" y="0">OUR </tspan><tspan class="cls-20" x="325.89" y="0">W</tspan><tspan class="cls-21" x="355.01" y="0">A</tspan><tspan class="cls-22" x="376.58" y="0">Y</tspan></text></svg>