<svg id="Capa_1" data-name="Capa 1" xmlns="http://www.w3.org/2000/svg" viewBox="0 0 595.28 461.74"><defs><style>.cls-1,.cls-4{fill:#84ad3d;}.cls-18,.cls-2,.cls-7{fill:#38468f;}.cls-3{fill:#8abfd5;}.cls-4{font-size:69.84px;font-family:HelveticaLTStd-Bold, Helvetica LT Std;font-weight:700;letter-spacing:-0.08em;}.cls-5{letter-spacing:-0.06em;}.cls-6{letter-spacing:-0.05em;}.cls-7{letter-spacing:-0.07em;}.cls-8{font-size:12px;fill:#222220;font-family:CocogoosePro-Thin, CocogoosePro Thin;font-weight:200;letter-spacing:0.01em;}.cls-9{letter-spacing:0.03em;}.cls-10{letter-spacing:0.02em;}.cls-11{letter-spacing:0.02em;}.cls-12{letter-spacing:0.02em;}.cls-13{letter-spacing:-0.06em;}.cls-14{letter-spacing:0.02em;}.cls-15{letter-spacing:0.02em;}.cls-16{letter-spacing:0.03em;}.cls-17{letter-spacing:-0.05em;}.cls-18{font-size:19px;font-family:Montserrat-Light, Montserrat;font-weight:300;letter-spacing:0.47em;}.cls-19{letter-spacing:0.44em;}.cls-20{letter-spacing:0.44em;}.cls-21{letter-spacing:0.44em;}.cls-22{letter-spacing:0.43em;}.cls-23{letter-spacing:0.47em;}</style></defs><path class="cls-1" d="M189.3,204.87c3.7-25.5,32.85-26.36,52.91-22.28,19.6,3.39,38.49,12.43,56.72,19.15,9,3.29,17.91,6.32,27.38,7.47,17.67,1.31,34.32-4.47,50.19-12.37a219.32,219.32,0,0,0,25.08-15.26c-12.92,21.54-35.71,39.67-61.53,45a66.41,66.41,0,0,1-21.19,1A118.16,118.16,0,0,1,299.32,223c-26.43-8.58-48.7-23.15-74.37-29.27-14.29-3.47-27.34-2.57-35.65,11.1Z"/><path class="cls-2" d="M206.68,167.38a22.36,22.36,0,0,1,1.39-6.16,19.88,19.88,0,0,1,3.52-5.71,22.17,22.17,0,0,1,5.41-4.44,29.51,29.51,0,0,1,6.46-2.74,46,46,0,0,1,13.42-1.63c2.21,0,4.38.17,6.52.39s4.27.48,6.33.86l3.06.55,1.51.28c.53.11,1.07.2,1.6.34,1.06.24,2.11.52,3.17.78s2,.56,3.05.85c4,1.18,7.95,2.49,11.74,3.89,7.61,2.78,14.84,5.81,21.89,8.4,3.53,1.31,7,2.53,10.45,3.53.86.27,1.72.52,2.57.73s1.72.47,2.55.66l2.48.56c.82.17,1.53.22,2.3.35l1.15.19,1.19.07,2.42.16c1.65-.07,3.3.05,5-.16.84-.08,1.69-.09,2.54-.21l2.57-.36a25.5,25.5,0,0,0,2.59-.45c.87-.18,1.74-.32,2.61-.54a108.91,108.91,0,0,0,20.93-7.45c1.71-.84,3.49-1.63,5.19-2.56l2.6-1.35,2.57-1.44c3.48-1.9,6.84-4,10.4-6.16A66.8,66.8,0,0,1,371.11,159a79.22,79.22,0,0,1-29.83,23.45,65.11,65.11,0,0,1-12.79,4.16,59.06,59.06,0,0,1-6.86,1.07c-1.17.08-2.35.13-3.54.17-.59,0-1.18,0-1.78,0l-1.82-.1c-1.2-.08-2.48-.11-3.62-.26l-3.38-.51c-1.12-.17-2.17-.43-3.26-.65s-2.15-.46-3.2-.74c-2.13-.51-4.18-1.14-6.23-1.76s-4.05-1.34-6-2.08c-15.72-5.85-29.16-13.66-43-18.68-1.78-.62-3.53-1.29-5.28-1.86s-3.49-1.08-5.23-1.56A46.58,46.58,0,0,0,224.94,158a20.56,20.56,0,0,0-9.88,1.83,19.23,19.23,0,0,0-4.49,3.06A32.44,32.44,0,0,0,206.68,167.38Z"/><path class="cls-3" d="M234.49,130.71a14.82,14.82,0,0,1,.6-4.57,14.14,14.14,0,0,1,2.32-4.4,16.1,16.1,0,0,1,3.89-3.55,21.31,21.31,0,0,1,4.74-2.28,33.41,33.41,0,0,1,9.87-1.65,57.18,57.18,0,0,1,9.36.55l2.2.31,1.09.17c.38.07.78.12,1.16.21l2.33.52c.77.18,1.48.36,2.21.55,2.91.77,5.73,1.64,8.43,2.59,5.42,1.87,10.48,3.93,15.3,5.7,2.41.9,4.77,1.74,7.06,2.43,1.15.39,2.28.66,3.39,1l1.61.4c.52.12.94.16,1.41.26l.7.14.76.07,1.52.16c1.06,0,2.11.12,3.22,0a47.9,47.9,0,0,0,6.86-.72,84.68,84.68,0,0,0,14.62-4.21c1.23-.49,2.51-1,3.75-1.51l1.9-.8,1.9-.85c2.57-1.14,5.09-2.44,7.83-3.7a40.16,40.16,0,0,1-4.18,7.91,52,52,0,0,1-5.65,7.06,52.84,52.84,0,0,1-15,11,46.51,46.51,0,0,1-9.34,3.3,43.94,43.94,0,0,1-5.09.88c-.88.08-1.76.13-2.65.17-.45,0-.89.05-1.34.05l-1.38-.05c-.91,0-1.88-.07-2.74-.18l-2.5-.35c-.83-.11-1.59-.29-2.39-.44s-1.58-.33-2.34-.52c-1.56-.37-3-.82-4.53-1.26s-2.91-1-4.3-1.48a168.49,168.49,0,0,1-15.63-7l-7.13-3.51-3.37-1.62c-.28-.14-.56-.25-.84-.38l-.93-.39-1.83-.77c-2.4-1-4.72-1.94-7-2.73a35.66,35.66,0,0,0-6.79-1.69,14.21,14.21,0,0,0-6.62.49,12.87,12.87,0,0,0-3.3,1.75A23,23,0,0,0,234.49,130.71Z"/><text class="cls-4" transform="translate(77.92 307.49)">Sma<tspan class="cls-5" x="131.79" y="0">r</tspan><tspan class="cls-6" x="155.11" y="0">t</tspan><tspan class="cls-7" x="174.6" y="0">S</tspan><tspan class="cls-2" x="216.01" y="0">hipping</tspan></text><text class="cls-8" transform="translate(10.78 443.36)">T<tspan class="cls-9" x="6.12" y="0">ipo</tspan><tspan class="cls-10" x="23.24" y="0">g</tspan><tspan class="cls-11" x="30.18" y="0">r</tspan><tspan class="cls-9" x="34.34" y="0">afía: Hel</tspan><tspan class="cls-12" x="76.62" y="0">v</tspan><tspan class="cls-9" x="82.57" y="0">etica </tspan><tspan class="cls-13" x="110.87" y="0">L</tspan><tspan class="cls-9" x="115.77" y="0">T </tspan><tspan class="cls-14" x="124.88" y="0">S</tspan><tspan class="cls-10" x="131.06" y="0">t</tspan><tspan class="cls-15" x="135.26" y="0">d </tspan><tspan class="cls-16" x="145.17" y="0">B</tspan><tspan class="cls-15" x="152.03" y="0">old</tspan><tspan class="cls-17" x="169.11" y="0"> </tspan></text><text class="cls-18" transform="translate(100.58 348.45)">O<tspan class="cls-19" x="24.87" y="0">P</tspan><tspan x="46.76" y="0">TIMIZING </tspan><tspan class="cls-20" x="220.29" y="0">Y</tspan><tspan x="240.54" y="0">OUR </tspan><tspan class="cls-21" x="325.89" y="0">W</tspan><tspan class="cls-22" x="355.01" y="0">A</tspan><tspan class="cls-23" x="376.58" y="0">Y</tspan></text></svg>