<svg xmlns="http://www.w3.org/2000/svg" viewBox="0 0 597.57 201.16"><defs><style>.cls-1{font-size:69.84px;font-family:HelveticaLTStd-Bold, Helvetica LT Std;font-weight:700;letter-spacing:-0.08em;}.cls-1,.cls-10,.cls-5{fill:#fff;}.cls-2{letter-spacing:-0.06em;}.cls-3{letter-spacing:-0.05em;}.cls-4{letter-spacing:-0.07em;}.cls-5{font-size:19px;font-family:Montserrat-Light, Montserrat;font-weight:300;letter-spacing:0.47em;}.cls-6{letter-spacing:0.44em;}.cls-7{letter-spacing:0.44em;}.cls-8{letter-spacing:0.44em;}.cls-9{letter-spacing:0.43em;}</style></defs><g id="Capa_2" data-name="Capa 2"><g id="Capa_1-2" data-name="Capa 1"><text class="cls-1" transform="translate(114.48 57.97)">Sma<tspan class="cls-2" x="131.79" y="0">r</tspan><tspan class="cls-3" x="155.11" y="0">t</tspan><tspan class="cls-4" x="174.6" y="0">S</tspan><tspan x="216.01" y="0">hipping</tspan></text><text class="cls-5" transform="translate(116.55 92.54)">O<tspan class="cls-6" x="24.87" y="0">P</tspan><tspan x="46.76" y="0">TIMIZING </tspan><tspan class="cls-7" x="220.29" y="0">Y</tspan><tspan x="240.54" y="0">OUR </tspan><tspan class="cls-8" x="325.89" y="0">W</tspan><tspan class="cls-9" x="355.01" y="0">A</tspan><tspan x="376.58" y="0">Y</tspan></text><path class="cls-10" d="M0,54.64A15.21,15.21,0,0,1,1.08,51a12.41,12.41,0,0,1,2.27-3.32,14.92,14.92,0,0,1,7.22-4,28.16,28.16,0,0,1,8.08-.73,52.29,52.29,0,0,1,7.8,1c1.28.25,2.45.49,3.76.8s2.56.69,3.78,1.07c2.46.74,4.85,1.62,7.19,2.5s4.64,1.83,6.91,2.71,4.51,1.82,6.74,2.62,4.44,1.61,6.66,2.22A38.45,38.45,0,0,0,68,57.21l.77.11c.26,0,.53,0,.79,0l1.6.07c1.08-.07,2.17,0,3.27-.17A43.25,43.25,0,0,0,81,56a64.27,64.27,0,0,0,13.06-5.22A103.76,103.76,0,0,0,106.52,43a51.37,51.37,0,0,1-23.2,19.78,40.1,40.1,0,0,1-7.74,2.35,35.06,35.06,0,0,1-4.11.59c-.7,0-1.4,0-2.11.07-.35,0-.7,0-1,0l-1.08-.07c-.71,0-1.46-.07-2.14-.17l-2-.33c-1.32-.26-2.64-.51-3.91-.85-2.57-.66-5-1.48-7.45-2.36-9.64-3.58-18.13-8.41-27-11.32-4.49-1.5-9-2.78-13.44-2.71a13,13,0,0,0-6.31,1.6A12.39,12.39,0,0,0,2.2,51.7,18.32,18.32,0,0,0,0,54.64Z"/><path class="cls-10" d="M8.72,35.83A10.71,10.71,0,0,1,11.29,30a14.13,14.13,0,0,1,1.25-1.19c.47-.32,1-.66,1.45-1s1-.5,1.57-.75,1.08-.36,1.63-.55c4.45-1.18,8.93-.75,13-.05,1,.19,2,.37,3.07.61s2.1.54,3.09.84c2,.58,4,1.28,5.86,2s3.75,1.46,5.59,2.16,3.62,1.45,5.4,2.08,3.54,1.29,5.29,1.78a30.31,30.31,0,0,0,5.06,1.16,28.28,28.28,0,0,0,10.24-.77A53.87,53.87,0,0,0,84.34,32.4a95.21,95.21,0,0,0,10.27-6A39.92,39.92,0,0,1,76.13,43a32.42,32.42,0,0,1-6.35,2,27.16,27.16,0,0,1-3.39.51c-.58,0-1.16,0-1.75.08a13.13,13.13,0,0,1-1.77,0c-.6,0-1.22,0-1.79-.13l-1.67-.27c-1.08-.2-2.16-.41-3.21-.68-2.1-.54-4.12-1.21-6.08-1.92-7.84-2.91-14.62-6.84-21.67-9.28a34.7,34.7,0,0,0-10.59-2.42,10.14,10.14,0,0,0-5,1.06A12.15,12.15,0,0,0,8.72,35.83Z"/><path class="cls-10" d="M22.68,17.43a7.31,7.31,0,0,1,1.56-4.38,8.85,8.85,0,0,1,4.28-2.79A21.69,21.69,0,0,1,38,9.85c.73.11,1.46.22,2.22.37s1.53.36,2.24.56c1.45.37,2.84.85,4.2,1.32s2.65,1,3.94,1.46,2.52,1,3.75,1.43,2.41.89,3.58,1.22a21.77,21.77,0,0,0,3.31.82A19.63,19.63,0,0,0,68,16.77a41.2,41.2,0,0,0,7.34-2.29c2.49-1,5-2.28,7.58-3.66A26.14,26.14,0,0,1,70.29,23.46,21.69,21.69,0,0,1,65.67,25a18.79,18.79,0,0,1-5.13.5,24.57,24.57,0,0,1-4.91-.75,44.13,44.13,0,0,1-4.39-1.37c-5.61-2.09-10.26-4.89-15-6.74a27,27,0,0,0-7.07-2.07,6.93,6.93,0,0,0-3.37.38A8.32,8.32,0,0,0,22.68,17.43Z"/></g></g></svg>