<svg id="Capa_2" xmlns="http://www.w3.org/2000/svg" viewBox="0 -10.03 546.15 85.02"><defs><style>.cls-1,.cls-2{fill:#fff;}.cls-3{letter-spacing:-.06em;}.cls-2{font-family:HelveticaLTStd-Bold, 'Helvetica LT Std';font-size:69.84px;}.cls-4{letter-spacing:-.07em;}.cls-5{letter-spacing:-.05em;}.cls-6{letter-spacing:-.08em;}</style></defs><g id="Capa_1-2"><text class="cls-2" transform="translate(114.49 57.97)"><tspan class="cls-6" x="0" y="0">Sma</tspan><tspan class="cls-3" x="131.79" y="0">r</tspan><tspan class="cls-5" x="155.11" y="0">t</tspan><tspan class="cls-4" x="174.6" y="0">S</tspan><tspan class="cls-6" x="216.01" y="0">hipping</tspan></text><path class="cls-1" d="M0,54.64c1.89-12.49,16.66-12.94,26.45-10.79,9.89,1.8,19.06,6.29,28.39,9.7,4.75,1.73,9.76,3.48,14.69,3.79,8.64,.42,16.84-2.56,24.56-6.53,4.26-2.24,8.36-4.91,12.44-7.86-8.05,12.78-23.34,23.5-39.29,22.75-5.31-.31-10.59-1.93-15.52-3.72-9.64-3.57-18.13-8.4-27.04-11.32-8.59-2.98-19.47-5.46-24.67,3.96H0Z"/><path class="cls-1" d="M8.72,35.83c1.23-10.37,13.57-10.99,21.51-9.36,11.57,1.84,21.93,8.66,33.36,10.6,11.06,1.18,21.81-4.68,31.02-10.66-4.06,7.12-10.49,13.04-18.48,16.59-6.18,2.78-13.38,3.37-19.93,1.49-9.79-2.45-18.98-8.14-27.75-11.2-6.83-2.48-15.21-4.74-19.73,2.53h0Z"/><path class="cls-1" d="M22.68,17.43c.18-7.63,9.7-8.63,15.35-7.58,8.08,1.03,15.39,5.62,23.24,7.18,7.48,.98,14.94-2.72,21.65-6.21-3.02,6.73-9.64,12.48-17.24,14.22-15.37,4.3-35.22-18.04-42.99-7.61h0Z"/></g></svg>