<svg xmlns="http://www.w3.org/2000/svg" viewBox="-1 -0.03 432.65 209.3"><defs><style>.cls-1,.cls-2{fill:#fff;}.cls-2{font-size:69.84px;font-family:HelveticaLTStd-Bold, Helvetica LT Std;font-weight:700;letter-spacing:-0.08em;}.cls-3{letter-spacing:-0.06em;}.cls-4{letter-spacing:-0.05em;}.cls-5{letter-spacing:-0.07em;}</style></defs><g id="Capa_2" data-name="Capa 2"><g id="Capa_1-2" data-name="Capa 1"><path class="cls-1" d="M111.38,90.63a28.76,28.76,0,0,1,2-7.44,25.32,25.32,0,0,1,4.48-6.76,27.09,27.09,0,0,1,6.65-5.16,35.85,35.85,0,0,1,7.84-3.1,55.88,55.88,0,0,1,16.28-1.62c2.68.06,5.32.3,7.93.62s5.19.69,7.72,1.18l3.75.74,1.86.38c.64.14,1.3.26,1.94.43,1.28.32,2.56.67,3.85,1s2.49.72,3.73,1.09c4.92,1.5,9.73,3.16,14.4,4.93,9.37,3.51,18.35,7.32,27.19,10.57,4.42,1.64,8.81,3.17,13.17,4.41,1.08.34,2.17.66,3.26.91s2.18.58,3.25.82l3.19.69a12.11,12.11,0,0,0,1.52.22l1.49.21,1.5.21c.51,0,1,0,1.55.08l3.14.16c1.06,0,2.12-.08,3.18-.09a24.89,24.89,0,0,0,3.22-.22c1.08-.12,2.17-.16,3.25-.33l3.27-.52c1.1-.13,2.19-.41,3.28-.64s2.2-.46,3.29-.75a130.67,130.67,0,0,0,26-10.06c2.1-1.12,4.28-2.17,6.35-3.41l3.16-1.79,3.12-1.9c4.2-2.52,8.23-5.34,12.45-8.15a100.55,100.55,0,0,1-46,40.18,81.34,81.34,0,0,1-15.56,4.84,75,75,0,0,1-8.28,1.22c-1.41.09-2.84.13-4.26.17-.71,0-1.42,0-2.14,0l-2.18-.13c-1.44-.1-3-.14-4.33-.34l-4.08-.63c-1.36-.22-2.64-.54-4-.8s-2.62-.58-3.9-.92c-2.59-.64-5.09-1.41-7.6-2.17s-4.94-1.64-7.33-2.55c-19.3-7.17-36.15-16.79-53.73-22.74-2.24-.75-4.45-1.53-6.67-2.19s-4.43-1.25-6.64-1.8a56.26,56.26,0,0,0-13.19-1.69,25.77,25.77,0,0,0-12.49,2.91,24.17,24.17,0,0,0-5.45,4.11A38.7,38.7,0,0,0,111.38,90.63Z"/><path class="cls-1" d="M128.76,53.15A22.07,22.07,0,0,1,130.15,47a20.15,20.15,0,0,1,3.51-5.7,22.26,22.26,0,0,1,5.42-4.45,29.47,29.47,0,0,1,6.46-2.73A45.65,45.65,0,0,1,159,32.47a63.6,63.6,0,0,1,6.52.38c2.15.23,4.27.49,6.33.86l3.06.55,1.51.29c.53.11,1.07.2,1.6.33,1.06.25,2.11.52,3.17.79s2,.56,3,.85c4,1.17,8,2.48,11.74,3.89,7.61,2.77,14.84,5.8,21.89,8.4,3.53,1.31,7,2.53,10.45,3.52.86.27,1.71.53,2.57.74s1.72.46,2.55.65l2.48.57c.82.16,1.53.21,2.3.35l1.14.18c.4,0,.8,0,1.2.07l2.42.17c1.64-.08,3.3,0,5-.16.84-.09,1.69-.1,2.54-.21l2.57-.37a25.5,25.5,0,0,0,2.59-.45c.87-.18,1.74-.31,2.61-.53a110.53,110.53,0,0,0,20.93-7.45c1.71-.85,3.49-1.63,5.19-2.57L287,42l2.57-1.44c3.48-1.9,6.84-4,10.4-6.17a66.33,66.33,0,0,1-6.74,10.38A80.25,80.25,0,0,1,284.72,54a79.11,79.11,0,0,1-21.36,14.22,65.33,65.33,0,0,1-12.79,4.16,61.28,61.28,0,0,1-6.86,1.07c-1.17.08-2.35.12-3.54.17-.59,0-1.18,0-1.78,0l-1.82-.09c-1.2-.08-2.48-.11-3.62-.27l-3.38-.51c-1.12-.17-2.17-.42-3.26-.64s-2.15-.47-3.21-.74c-2.12-.52-4.17-1.15-6.23-1.76s-4-1.34-6-2.08c-15.72-5.85-29.16-13.66-43-18.68-1.78-.63-3.53-1.3-5.28-1.86s-3.49-1.08-5.23-1.56A46,46,0,0,0,147,43.77a20.45,20.45,0,0,0-9.88,1.83,19.18,19.18,0,0,0-4.49,3A32,32,0,0,0,128.76,53.15Z"/><path class="cls-1" d="M156.57,16.47a14.9,14.9,0,0,1,.6-4.57,14.09,14.09,0,0,1,2.32-4.39A15.94,15.94,0,0,1,163.38,4a22,22,0,0,1,4.74-2.28A33.74,33.74,0,0,1,178,0a58.31,58.31,0,0,1,9.36.55l2.2.31,1.08.17c.39.07.79.13,1.17.22l2.33.51c.77.18,1.48.36,2.21.56,2.91.77,5.73,1.64,8.42,2.59,5.42,1.86,10.49,3.93,15.31,5.7,2.41.9,4.77,1.74,7.06,2.42,1.15.4,2.28.66,3.39,1l1.61.4c.52.12.94.16,1.41.26l.7.15.75.06,1.53.17c1.06,0,2.11.12,3.22,0a49.32,49.32,0,0,0,6.86-.71,84.68,84.68,0,0,0,14.62-4.21c1.23-.49,2.51-1,3.75-1.51l1.9-.8,1.9-.86c2.57-1.13,5.09-2.43,7.83-3.69a40.9,40.9,0,0,1-4.18,7.9,51.51,51.51,0,0,1-5.65,7.07,52.81,52.81,0,0,1-15,11,45.31,45.31,0,0,1-9.34,3.3,44.33,44.33,0,0,1-5.09.89c-.88.07-1.77.12-2.65.17-.45,0-.89,0-1.34,0l-1.38,0c-.91,0-1.89-.06-2.74-.17l-2.5-.35c-.83-.12-1.59-.3-2.39-.45s-1.58-.33-2.34-.52c-1.56-.37-3-.81-4.53-1.25s-2.91-1-4.3-1.49a165.88,165.88,0,0,1-15.63-7l-7.13-3.51L187,17.29c-.27-.14-.55-.25-.83-.37l-.93-.39-1.83-.78c-2.4-1-4.72-1.94-7-2.72a34.92,34.92,0,0,0-6.79-1.69,14.07,14.07,0,0,0-6.62.48,12.87,12.87,0,0,0-3.3,1.75A23,23,0,0,0,156.57,16.47Z"/><text class="cls-2" transform="translate(0 192.26)">Sma<tspan class="cls-3" x="131.79" y="0">r</tspan><tspan class="cls-4" x="155.11" y="0">t</tspan><tspan class="cls-5" x="174.6" y="0">S</tspan><tspan x="216.01" y="0">hipping</tspan></text></g></g></svg>