<svg xmlns="http://www.w3.org/2000/svg" viewBox="0 0 547.21 85.65"><defs><style>.cls-1{fill:#fff;}</style></defs><g id="Capa_2" data-name="Capa 2"><g id="Capa_1-2" data-name="Capa 1"><path class="cls-1" d="M127.27,36c.07,2.79,1.46,8.1,10.61,8.1,5,0,10.48-1.19,10.48-6.5,0-3.91-3.77-5-9.08-6.21l-5.38-1.26C125.8,28.29,118,26.47,118,15.43,118,9.85,121,0,137.25,0c15.37,0,19.49,10.06,19.56,16.2H146.75c-.28-2.23-1.12-7.54-10.27-7.54-4,0-8.73,1.47-8.73,6,0,3.91,3.22,4.75,5.31,5.23l12.22,3c6.85,1.67,13.13,4.47,13.13,13.48,0,15.08-15.36,16.41-19.76,16.41-18.3,0-21.44-10.55-21.44-16.76Z"/><path class="cls-1" d="M213.52,51.47h-9.78V28.91c0-5.51-2.44-7.33-5.31-7.33-4.89,0-6.63,3.21-6.63,7.61V51.47H182V29.12c0-3.14,0-7.54-5.87-7.54-4.61,0-6.07,3.21-6.07,7.26V51.47H160.3V14.32h9.36v5.44h.14a11.05,11.05,0,0,1,10.54-6.42c5.38,0,7.83,1.95,10.34,5.94,1.26-1.82,4-5.94,9.92-5.94,7.26,0,12.92,4.26,12.92,12.43Z"/><path class="cls-1" d="M247.32,44.21c0,4.4,1,5.38,2.17,5.79v1.47H238.94a16.23,16.23,0,0,1-.91-4.4c-2.23,2.31-5.38,5.38-12,5.38-5.59,0-11.32-3.14-11.32-10.83,0-7.26,4.61-11,10.83-11.87l8.8-1.33c1.54-.21,3.42-.83,3.42-2.93,0-4.12-3.91-4.33-6.42-4.33-4.89,0-5.73,3-6,5.17h-9.43c1.12-11.38,9-13,16.62-13,5.24,0,14.81,1.61,14.81,10.75Zm-9.57-10.83c-1,.77-2.58,1.4-6.63,2-3.63.63-6.64,1.54-6.64,5.59A4.26,4.26,0,0,0,229,45.46c4.33,0,8.73-2.79,8.73-7.33Z"/><path class="cls-1" d="M250.74,14.32h9.36v6.42h.14c2-3.77,4.26-7.4,10.2-7.4a16.81,16.81,0,0,1,1.88.14V23.4a18.11,18.11,0,0,0-2.79-.14c-7.61,0-9,4.75-9,8.87V51.47h-9.78Z"/><path class="cls-1" d="M285.1,14.32h6.08v7H285.1V41.48c0,2.17.07,3,4,3,.63,0,1.33-.07,2-.14v7.4c-1.54.07-3.07.14-4.61.14h-1.26c-8.45,0-10-3.21-10-8V21.3h-5v-7h5V4.26h9.78Z"/><path class="cls-1" d="M301.86,36c.07,2.79,1.47,8.1,10.62,8.1,5,0,10.48-1.19,10.48-6.5,0-3.91-3.78-5-9.08-6.21l-5.38-1.26c-8.1-1.88-15.92-3.7-15.92-14.74,0-5.58,3-15.43,19.27-15.43,15.37,0,19.49,10.06,19.56,16.2H321.35c-.28-2.23-1.12-7.54-10.27-7.54-4,0-8.73,1.47-8.73,6,0,3.91,3.22,4.75,5.31,5.23l12.22,3C326.73,24.58,333,27.38,333,36.39c0,15.08-15.36,16.41-19.76,16.41C295,52.8,291.81,42.25,291.81,36Z"/><path class="cls-1" d="M368.63,51.47h-9.78V28.91c0-2.72-.14-7.33-6.35-7.33-4.33,0-7.68,2.93-7.68,8.59v21.3H335V1.33h9.78V19.14H345c1.25-3.08,5.44-5.8,10.75-5.8,7.26,0,12.92,4.26,12.92,12.43Z"/><path class="cls-1" d="M382.53,9.92h-9.78V.84h9.78Zm0,4.4V51.47h-9.78V14.32Z"/><path class="cls-1" d="M395.8,19.7h.14c1.81-2.94,4.54-6.36,11.1-6.36,8.17,0,15.44,6.28,15.44,19.14,0,10.19-4.61,20-15.65,20-6.84,0-9.29-3.7-10.47-5.73h-.14V65.93h-9.78V14.32h9.36Zm8.59,24.72c6.28,0,8-6.85,8-11.25,0-5.86-2.1-11.38-8.31-11.38-6.7,0-8.31,6-8.31,11.94C395.8,39.25,398.17,44.42,404.39,44.42Z"/><path class="cls-1" d="M433.23,19.7h.14c1.82-2.94,4.54-6.36,11.11-6.36,8.17,0,15.43,6.28,15.43,19.14,0,10.19-4.61,20-15.64,20-6.85,0-9.29-3.7-10.48-5.73h-.14V65.93h-9.78V14.32h9.36Zm8.59,24.72c6.29,0,8-6.85,8-11.25,0-5.86-2.1-11.38-8.32-11.38-6.7,0-8.31,6-8.31,11.94C433.23,39.25,435.61,44.42,441.82,44.42Z"/><path class="cls-1" d="M471.57,9.92H461.8V.84h9.77Zm0,4.4V51.47H461.8V14.32Z"/><path class="cls-1" d="M509.29,51.47h-9.78V28.91c0-2.72-.14-7.33-6.35-7.33-4.34,0-7.69,2.93-7.69,8.59v21.3H475.7V14.32h9.35v5.44h.14a12,12,0,0,1,11.18-6.42c7.26,0,12.92,4.26,12.92,12.43Z"/><path class="cls-1" d="M547.21,14.32v35.2c0,6.42-.49,17.11-18.79,17.11-7.68,0-15.78-3.29-16.2-11.18h10.62c.42,1.89,1.18,3.77,6.84,3.77,5.24,0,7.75-2.51,7.75-8.52V46.23l-.14-.14c-1.6,2.87-4,5.59-9.91,5.59-8.94,0-16-6.22-16-19.2s7.27-19.14,15.44-19.14c6.91,0,9.71,4.05,10.89,6.49h.14V14.32Zm-18,29.12c6.64,0,8.31-5.66,8.31-10.75,0-6-2.93-10.9-8.38-10.9-3.63,0-7.68,2.65-7.68,11.31C521.44,37.85,523.4,43.44,529.19,43.44Z"/><path class="cls-1" d="M128.94,78.9c0,4.41-2.68,6.75-6,6.75s-5.75-2.63-5.75-6.5c0-4.07,2.52-6.73,5.94-6.73S128.94,75.1,128.94,78.9Zm-9.94.21c0,2.74,1.49,5.19,4.09,5.19s4.1-2.42,4.1-5.32c0-2.55-1.33-5.21-4.08-5.21S119,76.3,119,79.11Z"/><path class="cls-1" d="M140,72.79a18.27,18.27,0,0,1,3.17-.25,5.29,5.29,0,0,1,3.59,1.06,3.46,3.46,0,0,1,1.12,2.68,3.77,3.77,0,0,1-1,2.74,5.3,5.3,0,0,1-3.91,1.4,6,6,0,0,1-1.33-.11v5.13H140ZM141.69,79a5.83,5.83,0,0,0,1.37.13c2,0,3.21-1,3.21-2.73s-1.2-2.51-3-2.51a7.38,7.38,0,0,0-1.56.13Z"/><path class="cls-1" d="M161.53,74h-3.9V72.63h9.48V74H163.2v11.4h-1.67Z"/><path class="cls-1" d="M179.14,72.63V85.44h-1.65V72.63Z"/><path class="cls-1" d="M201.77,79.81c-.1-1.78-.21-3.93-.19-5.52h-.06c-.44,1.5-1,3.09-1.62,4.86l-2.26,6.21h-1.25l-2.07-6.1c-.61-1.8-1.12-3.45-1.48-5h0c0,1.59-.13,3.74-.25,5.66l-.34,5.49h-1.58l.9-12.81h2.11l2.18,6.2c.53,1.57,1,3,1.29,4.31h.06c.32-1.29.78-2.7,1.35-4.31l2.28-6.2h2.11l.79,12.81h-1.61Z"/><path class="cls-1" d="M216.85,72.63V85.44H215.2V72.63Z"/><path class="cls-1" d="M227.82,84.47l7.1-10.39V74h-6.5V72.63h8.65v1L230,84v.06h7.16v1.39h-9.34Z"/><path class="cls-1" d="M249.8,72.63V85.44h-1.65V72.63Z"/><path class="cls-1" d="M261.64,85.44V72.63h1.8l4.1,6.48a35.08,35.08,0,0,1,2.3,4.16l0,0c-.15-1.71-.19-3.26-.19-5.26V72.63h1.56V85.44h-1.67l-4.07-6.5a40.2,40.2,0,0,1-2.39-4.27h-.06c.1,1.62.13,3.16.13,5.29v5.47Z"/><path class="cls-1" d="M292.83,84.87a12.07,12.07,0,0,1-3.93.7,6,6,0,0,1-6.57-6.46c0-3.82,2.64-6.61,6.93-6.61a7.84,7.84,0,0,1,3.19.59l-.4,1.35a6.54,6.54,0,0,0-2.83-.55A4.79,4.79,0,0,0,284.07,79c0,3.24,2,5.16,4.94,5.16a5.41,5.41,0,0,0,2.21-.34V80h-2.61V78.71h4.22Z"/><path class="cls-1" d="M319.26,85.44V80l-4-7.37h1.88l1.8,3.54c.5,1,.88,1.74,1.27,2.64h0c.36-.84.8-1.67,1.29-2.64l1.85-3.54h1.88L320.93,80v5.45Z"/><path class="cls-1" d="M345.9,78.9c0,4.41-2.68,6.75-5.95,6.75s-5.75-2.63-5.75-6.5c0-4.07,2.52-6.73,5.94-6.73S345.9,75.1,345.9,78.9Zm-9.94.21c0,2.74,1.49,5.19,4.09,5.19s4.1-2.42,4.1-5.32c0-2.55-1.33-5.21-4.08-5.21S336,76.3,336,79.11Z"/><path class="cls-1" d="M358.65,72.63v7.58c0,2.87,1.27,4.09,3,4.09,1.9,0,3.12-1.26,3.12-4.09V72.63h1.67V80.1c0,3.93-2.07,5.55-4.84,5.55s-4.6-1.5-4.6-5.48V72.63Z"/><path class="cls-1" d="M378.24,72.8a17.27,17.27,0,0,1,3.17-.26,5.22,5.22,0,0,1,3.7,1,3.19,3.19,0,0,1,1,2.43,3.35,3.35,0,0,1-2.41,3.27v.06a3.17,3.17,0,0,1,1.88,2.58,20.29,20.29,0,0,0,1,3.52h-1.71a16.43,16.43,0,0,1-.86-3.06c-.38-1.77-1.06-2.43-2.56-2.49h-1.56v5.55h-1.65Zm1.65,5.84h1.69c1.77,0,2.89-1,2.89-2.43,0-1.66-1.2-2.38-2.94-2.4a7.26,7.26,0,0,0-1.64.15Z"/><path class="cls-1" d="M411.79,85.44l-3.25-12.81h1.75l1.52,6.48c.38,1.6.72,3.19.95,4.43h0c.21-1.28.61-2.79,1-4.45l1.71-6.46h1.73l1.56,6.5c.36,1.52.7,3,.89,4.39h0c.27-1.41.63-2.83,1-4.43l1.69-6.46h1.69l-3.63,12.81h-1.73l-1.61-6.67a38.09,38.09,0,0,1-.84-4.18h0a39.32,39.32,0,0,1-1,4.18l-1.82,6.67Z"/><path class="cls-1" d="M435.71,81.41l-1.33,4h-1.71L437,72.63h2l4.37,12.81h-1.77l-1.37-4Zm4.2-1.29-1.25-3.69c-.29-.83-.48-1.59-.67-2.33h0c-.18.76-.39,1.53-.64,2.31l-1.25,3.71Z"/><path class="cls-1" d="M455.57,85.44V80l-4.05-7.37h1.88l1.81,3.54c.49,1,.87,1.74,1.27,2.64h0c.36-.84.8-1.67,1.29-2.64l1.84-3.54h1.88L457.24,80v5.45Z"/><path class="cls-1" d="M0,48.15a15.09,15.09,0,0,1,1.08-3.69,12.45,12.45,0,0,1,2.27-3.33,14.9,14.9,0,0,1,7.22-4,27.81,27.81,0,0,1,8.08-.73,52.29,52.29,0,0,1,7.8,1c1.28.26,2.45.49,3.76.8s2.56.7,3.78,1.08c2.46.74,4.85,1.61,7.19,2.49s4.64,1.83,6.91,2.71,4.51,1.83,6.74,2.62,4.44,1.61,6.66,2.22A37.49,37.49,0,0,0,68,50.71l.77.11.79,0,1.6.07c1.08-.08,2.17,0,3.27-.18A42,42,0,0,0,81,49.55a64.86,64.86,0,0,0,13.06-5.22,102.62,102.62,0,0,0,12.44-7.87,51.31,51.31,0,0,1-23.2,19.78,40.12,40.12,0,0,1-7.74,2.36,35.06,35.06,0,0,1-4.11.59c-.7,0-1.4.05-2.11.07l-1,0-1.08-.06c-.71,0-1.46-.07-2.14-.18l-2-.32c-1.32-.26-2.64-.52-3.91-.86-2.57-.66-5-1.48-7.45-2.36-9.64-3.57-18.13-8.4-27-11.31-4.49-1.51-9-2.79-13.44-2.71a12.82,12.82,0,0,0-6.31,1.6A12.1,12.1,0,0,0,2.2,45.21,18.32,18.32,0,0,0,0,48.15Z"/><path class="cls-1" d="M8.72,29.34a10.73,10.73,0,0,1,2.57-5.84,12.72,12.72,0,0,1,1.25-1.18c.47-.33,1-.67,1.45-1s1-.5,1.57-.75,1.08-.37,1.63-.55c4.45-1.19,8.93-.76,13-.06,1,.19,2,.38,3.07.61s2.1.55,3.09.84c2,.58,4,1.28,5.86,2s3.75,1.45,5.59,2.15,3.62,1.46,5.4,2.09,3.54,1.29,5.29,1.77a30.31,30.31,0,0,0,5.06,1.16,28.26,28.26,0,0,0,10.24-.76A53.28,53.28,0,0,0,84.34,25.9a93.47,93.47,0,0,0,10.27-6A39.9,39.9,0,0,1,76.13,36.51a31.76,31.76,0,0,1-6.35,2,29.16,29.16,0,0,1-3.39.52l-1.75.07a13.11,13.11,0,0,1-1.77,0c-.6,0-1.22-.06-1.79-.14l-1.67-.26c-1.08-.21-2.16-.41-3.21-.69a63.39,63.39,0,0,1-6.08-1.91c-7.84-2.91-14.62-6.84-21.67-9.28a34.41,34.41,0,0,0-10.59-2.42,10,10,0,0,0-5,1.06A12,12,0,0,0,8.72,29.34Z"/><path class="cls-1" d="M22.68,10.94a7.32,7.32,0,0,1,1.56-4.39,8.85,8.85,0,0,1,4.28-2.79A21.69,21.69,0,0,1,38,3.35c.73.12,1.46.23,2.22.37s1.53.37,2.24.56c1.45.38,2.84.85,4.2,1.32s2.65,1,3.94,1.46,2.52,1,3.75,1.43,2.41.89,3.58,1.22a21.9,21.9,0,0,0,3.31.83A19.4,19.4,0,0,0,68,10.27,40.39,40.39,0,0,0,75.33,8c2.49-1,5-2.27,7.58-3.65A26.16,26.16,0,0,1,70.29,17a22.28,22.28,0,0,1-4.62,1.59,18.79,18.79,0,0,1-5.13.49,24.57,24.57,0,0,1-4.91-.75c-1.53-.38-3-.86-4.39-1.36-5.61-2.09-10.26-4.9-15-6.75a27.34,27.34,0,0,0-7.07-2.07,6.93,6.93,0,0,0-3.37.39A8.22,8.22,0,0,0,22.68,10.94Z"/></g></g></svg>