<svg xmlns="http://www.w3.org/2000/svg" id="Capa_2" viewBox="-0.03 -9.03 546.49 83"><defs><style>.cls-1,.cls-2{fill:#fff;}.cls-3{letter-spacing:-.06em;}.cls-2{font-family:HelveticaLTStd-Bold, 'Helvetica LT Std';font-size:69.84px;}.cls-4{letter-spacing:-.07em;}.cls-5{letter-spacing:-.05em;}.cls-6{letter-spacing:-.08em;}</style></defs><g id="Capa_1-2"><text class="cls-2" transform="translate(114.48 57.97)"><tspan class="cls-6" x="0" y="0">Sma</tspan><tspan class="cls-3" x="131.79" y="0">r</tspan><tspan class="cls-5" x="155.11" y="0">t</tspan><tspan class="cls-4" x="174.6" y="0">S</tspan><tspan class="cls-6" x="216.01" y="0">hipping</tspan></text><path class="cls-1" d="M0,54.64c.19-1.25,.56-2.48,1.08-3.69,.56-1.19,1.32-2.33,2.27-3.32,1.9-2.03,4.55-3.33,7.22-4.01,2.69-.68,5.43-.84,8.08-.73,2.66,.1,5.27,.48,7.79,.96,1.28,.26,2.45,.49,3.77,.8,1.28,.33,2.56,.7,3.77,1.07,2.46,.74,4.85,1.62,7.19,2.5,2.35,.87,4.64,1.83,6.91,2.71,2.27,.91,4.51,1.82,6.74,2.62,2.22,.84,4.44,1.61,6.65,2.22,2.18,.63,4.47,1.23,6.47,1.43l.77,.11c.26,.02,.53,.02,.8,.04l1.6,.07c1.08-.07,2.17-.02,3.27-.17,2.2-.17,4.41-.66,6.63-1.2,4.42-1.2,8.81-2.99,13.06-5.22,4.26-2.24,8.36-4.91,12.44-7.86-5.37,8.52-13.4,15.59-23.2,19.78-2.48,.98-5.04,1.88-7.75,2.36-1.33,.32-2.73,.43-4.11,.59-.7,.04-1.4,.05-2.11,.07-.35,0-.7,.02-1.06,.02l-1.08-.06c-.71-.05-1.46-.07-2.14-.17l-2.02-.33c-1.32-.26-2.64-.51-3.91-.85-2.57-.66-5.04-1.48-7.45-2.36-9.64-3.57-18.13-8.4-27.04-11.32-4.49-1.51-9.01-2.78-13.44-2.71-2.21,.04-4.37,.49-6.32,1.6-.97,.56-1.88,1.27-2.71,2.13-.83,.86-1.52,1.87-2.2,2.94Z"/><path class="cls-1" d="M8.72,35.83c.26-2.01,1.01-4.13,2.56-5.83,.4-.39,.79-.84,1.25-1.19,.47-.33,.95-.66,1.44-.98,.51-.26,1.04-.5,1.57-.75,.54-.21,1.08-.37,1.63-.55,4.45-1.19,8.93-.76,13.04-.06,1.02,.19,2.03,.37,3.07,.61,1.06,.26,2.1,.55,3.09,.84,2.01,.58,3.95,1.28,5.86,1.97,1.91,.69,3.76,1.46,5.59,2.16,1.83,.72,3.62,1.45,5.41,2.09,1.77,.67,3.54,1.29,5.29,1.78,1.72,.51,3.54,1,5.06,1.16,3.19,.47,6.73,.05,10.24-.76,3.52-.88,7.05-2.22,10.51-3.92,3.47-1.69,6.84-3.74,10.27-5.99-4.06,7.12-10.49,13.04-18.48,16.59-2.02,.83-4.12,1.6-6.35,2.01-1.1,.27-2.25,.38-3.39,.52-.58,.04-1.16,.05-1.75,.07-.58,.04-1.17,.02-1.78-.02-.59-.04-1.22-.05-1.78-.13l-1.67-.26c-1.09-.21-2.17-.41-3.21-.68-2.1-.54-4.12-1.21-6.08-1.92-7.85-2.91-14.62-6.84-21.67-9.28-3.57-1.28-7.11-2.34-10.6-2.42-1.74-.04-3.44,.24-5,1.06-1.57,.82-2.95,2.19-4.13,3.89Z"/><path class="cls-1" d="M22.68,17.43c.05-1.46,.48-3.05,1.56-4.38,1.06-1.35,2.67-2.28,4.27-2.79,3.26-1.02,6.55-.81,9.51-.41,.73,.11,1.46,.22,2.21,.37,.77,.17,1.54,.36,2.25,.56,1.45,.38,2.84,.85,4.19,1.32,1.36,.46,2.66,1,3.94,1.46,1.28,.5,2.52,1,3.75,1.43,1.22,.47,2.41,.89,3.59,1.22,1.14,.36,2.38,.7,3.31,.82,2,.36,4.34,.17,6.73-.26,2.39-.49,4.87-1.27,7.34-2.29,2.49-1.02,4.95-2.28,7.58-3.65-2.44,5.39-6.88,9.88-12.61,12.64-1.46,.65-2.98,1.25-4.62,1.58-1.63,.4-3.34,.55-5.13,.49-1.87-.05-3.36-.41-4.91-.75-1.53-.38-2.98-.86-4.38-1.37-5.61-2.09-10.26-4.89-14.99-6.75-2.43-.98-4.77-1.82-7.07-2.07-1.15-.13-2.27-.05-3.37,.38-1.1,.44-2.16,1.29-3.13,2.44Z"/></g></svg>