<svg xmlns="http://www.w3.org/2000/svg" viewBox="0 0 430 207.41"><defs><style>.cls-1{fill:#fff;}</style></defs><g id="Capa_2" data-name="Capa 2"><g id="Capa_1-2" data-name="Capa 1"><path class="cls-1" d="M108.65,90.63a28.78,28.78,0,0,1,2-7.44,25.32,25.32,0,0,1,4.48-6.76,26.91,26.91,0,0,1,6.65-5.16,35.85,35.85,0,0,1,7.84-3.1,55.81,55.81,0,0,1,16.27-1.62c2.68.06,5.33.3,7.94.62s5.19.69,7.71,1.18l3.76.74,1.85.38c.65.14,1.3.26,1.94.43,1.29.32,2.57.67,3.86,1s2.48.72,3.72,1.09c4.92,1.5,9.74,3.16,14.4,4.93,9.38,3.51,18.35,7.32,27.2,10.57,4.42,1.64,8.8,3.17,13.16,4.41,1.09.34,2.18.66,3.27.91s2.18.58,3.24.82l3.19.69a12.38,12.38,0,0,0,1.52.22l1.5.21,1.49.21c.51,0,1,0,1.56.08l3.13.16c1.06,0,2.12-.08,3.19-.09a25,25,0,0,0,3.22-.22c1.08-.12,2.16-.16,3.25-.33l3.27-.52c1.1-.13,2.18-.41,3.28-.64s2.2-.46,3.29-.75a130.67,130.67,0,0,0,26-10.06c2.1-1.12,4.28-2.17,6.34-3.41l3.17-1.79,3.11-1.9c4.21-2.52,8.24-5.34,12.45-8.15a100.58,100.58,0,0,1-46,40.18,81.34,81.34,0,0,1-15.56,4.84,75.22,75.22,0,0,1-8.29,1.22c-1.41.09-2.83.13-4.25.17-.71,0-1.42,0-2.14,0l-2.18-.13c-1.44-.1-3-.14-4.33-.34l-4.08-.63c-1.36-.22-2.64-.54-4-.8s-2.61-.58-3.89-.92c-2.59-.64-5.09-1.41-7.6-2.17s-5-1.64-7.34-2.55c-19.29-7.17-36.14-16.79-53.72-22.74-2.25-.75-4.46-1.53-6.67-2.19s-4.44-1.25-6.64-1.8a56.35,56.35,0,0,0-13.2-1.69,25.75,25.75,0,0,0-12.48,2.91,24.22,24.22,0,0,0-5.46,4.11A39.36,39.36,0,0,0,108.65,90.63Z"/><path class="cls-1" d="M126,53.15A22.41,22.41,0,0,1,127.42,47a20.42,20.42,0,0,1,3.52-5.7,22.07,22.07,0,0,1,5.42-4.45,29.47,29.47,0,0,1,6.46-2.73,45.61,45.61,0,0,1,13.42-1.63,63.77,63.77,0,0,1,6.52.38c2.14.23,4.26.49,6.32.86l3.06.55,1.52.29c.53.11,1.07.2,1.59.33,1.06.25,2.12.52,3.18.79s2,.56,3,.85c4,1.17,8,2.48,11.73,3.89,7.62,2.77,14.85,5.8,21.9,8.4,3.52,1.31,7,2.53,10.44,3.52.86.27,1.72.53,2.57.74s1.72.46,2.55.65l2.49.57c.81.16,1.53.21,2.3.35l1.14.18c.39,0,.8,0,1.2.07l2.42.17c1.64-.08,3.29,0,5-.16.84-.09,1.69-.1,2.55-.21l2.57-.37c.86-.08,1.72-.28,2.59-.45s1.74-.31,2.6-.53a110,110,0,0,0,20.93-7.45c1.72-.85,3.5-1.63,5.19-2.57L284.24,42l2.57-1.44c3.47-1.9,6.84-4,10.39-6.17a64.93,64.93,0,0,1-6.74,10.38A80.16,80.16,0,0,1,282,54a79.16,79.16,0,0,1-21.37,14.22,65,65,0,0,1-12.78,4.16A61.64,61.64,0,0,1,241,73.44c-1.17.08-2.36.12-3.54.17-.59,0-1.18,0-1.78,0l-1.83-.09c-1.2-.08-2.47-.11-3.62-.27l-3.37-.51c-1.13-.17-2.18-.42-3.27-.64s-2.15-.47-3.2-.74c-2.13-.52-4.17-1.15-6.23-1.76s-4-1.34-6-2.08c-15.72-5.85-29.17-13.66-43-18.68-1.79-.63-3.53-1.3-5.28-1.86s-3.5-1.08-5.23-1.56a46.09,46.09,0,0,0-10.34-1.69,20.43,20.43,0,0,0-9.87,1.83,19.18,19.18,0,0,0-4.49,3A31.33,31.33,0,0,0,126,53.15Z"/><path class="cls-1" d="M153.85,16.47a14.6,14.6,0,0,1,.6-4.57,14.09,14.09,0,0,1,2.32-4.39A15.9,15.9,0,0,1,160.65,4a22.45,22.45,0,0,1,4.74-2.28A33.81,33.81,0,0,1,175.27,0a58.18,58.18,0,0,1,9.35.55l2.21.31,1.08.17c.39.07.78.13,1.17.22l2.33.51c.77.18,1.47.36,2.21.56,2.9.77,5.73,1.64,8.42,2.59,5.42,1.86,10.48,3.93,15.31,5.7,2.41.9,4.77,1.74,7.06,2.42,1.14.4,2.28.66,3.39,1l1.6.4c.53.12.94.16,1.42.26l.7.15c.24,0,.5,0,.75.06l1.53.17c1,0,2.11.12,3.22,0a49.34,49.34,0,0,0,6.85-.71,84.18,84.18,0,0,0,14.62-4.21c1.24-.49,2.52-1,3.75-1.51l1.91-.8L266,7c2.57-1.13,5.1-2.43,7.84-3.69a40.9,40.9,0,0,1-4.18,7.9,51.51,51.51,0,0,1-5.65,7.07,52.86,52.86,0,0,1-15.05,11,45.1,45.1,0,0,1-9.34,3.3,44,44,0,0,1-5.09.89c-.87.07-1.76.12-2.65.17-.44,0-.88,0-1.33,0l-1.38,0c-.91,0-1.89-.06-2.74-.17l-2.5-.35c-.84-.12-1.6-.3-2.4-.45s-1.57-.33-2.34-.52c-1.55-.37-3-.81-4.52-1.25s-2.92-1-4.31-1.49a164.53,164.53,0,0,1-15.62-7l-7.14-3.51-3.37-1.62c-.27-.14-.56-.25-.83-.37l-.94-.39-1.83-.78c-2.4-1-4.71-1.94-7-2.72a35.1,35.1,0,0,0-6.79-1.69,14.11,14.11,0,0,0-6.63.48A13,13,0,0,0,157,13.57,22.45,22.45,0,0,0,153.85,16.47Z"/><path class="cls-1" d="M10.06,176.82c.07,2.8,1.46,8.1,10.61,8.1,5,0,10.48-1.18,10.48-6.49,0-3.91-3.77-5-9.08-6.22L16.69,171C8.59,169.07.77,167.25.77,156.22c0-5.59,3-15.43,19.27-15.43,15.37,0,19.49,10.05,19.56,16.2H29.54c-.28-2.24-1.12-7.54-10.26-7.54-4,0-8.73,1.46-8.73,6,0,3.91,3.21,4.75,5.3,5.24l12.23,3c6.84,1.68,13.13,4.47,13.13,13.48,0,15.09-15.37,16.41-19.77,16.41C3.14,193.58,0,183,0,176.82Z"/><path class="cls-1" d="M96.31,192.26H86.53V169.7c0-5.52-2.44-7.33-5.31-7.33-4.89,0-6.63,3.21-6.63,7.61v22.28H64.81V169.91c0-3.14,0-7.54-5.87-7.54-4.61,0-6.07,3.21-6.07,7.26v22.63H43.09V155.1h9.36v5.45h.14a11.05,11.05,0,0,1,10.54-6.42c5.38,0,7.83,2,10.34,5.93,1.26-1.81,4-5.93,9.92-5.93,7.26,0,12.92,4.26,12.92,12.43Z"/><path class="cls-1" d="M130.11,185c0,4.4,1,5.38,2.17,5.8v1.47H121.73a16.4,16.4,0,0,1-.91-4.4c-2.23,2.3-5.37,5.37-12,5.37-5.59,0-11.31-3.14-11.31-10.82,0-7.26,4.61-11,10.82-11.87l8.8-1.33c1.54-.21,3.42-.84,3.42-2.93,0-4.12-3.91-4.33-6.42-4.33-4.89,0-5.73,3-6,5.17H98.68c1.12-11.39,9-13,16.63-13,5.23,0,14.8,1.6,14.8,10.75Z"/><path class="cls-1" d="M133.53,155.1h9.36v6.43H143c2-3.77,4.26-7.4,10.2-7.4a16.8,16.8,0,0,1,1.88.13v9.92a18.11,18.11,0,0,0-2.79-.14c-7.61,0-9,4.75-9,8.87v19.35h-9.78Z"/><path class="cls-1" d="M167.89,155.1H174v7h-6.08v20.18c0,2.17.07,3,4.05,3,.63,0,1.33-.07,2-.14v7.41c-1.54.07-3.07.14-4.61.14H168.1c-8.45,0-10-3.22-10-8V162.09h-5v-7h5v-10h9.77Z"/><path class="cls-1" d="M184.66,176.82c.07,2.8,1.46,8.1,10.61,8.1,5,0,10.48-1.18,10.48-6.49,0-3.91-3.77-5-9.08-6.22L191.29,171c-8.1-1.89-15.92-3.71-15.92-14.74,0-5.59,3-15.43,19.27-15.43,15.37,0,19.49,10.05,19.56,16.2H204.14c-.28-2.24-1.12-7.54-10.27-7.54-4,0-8.73,1.46-8.73,6,0,3.91,3.22,4.75,5.31,5.24l12.22,3c6.85,1.68,13.13,4.47,13.13,13.48,0,15.09-15.36,16.41-19.76,16.41-18.3,0-21.44-10.54-21.44-16.76Z"/><path class="cls-1" d="M251.42,192.26h-9.78V169.7c0-2.72-.14-7.33-6.35-7.33-4.33,0-7.68,2.93-7.68,8.59v21.3h-9.78V142.11h9.78v17.81h.14c1.25-3.07,5.44-5.79,10.75-5.79,7.27,0,12.92,4.26,12.92,12.43Z"/><path class="cls-1" d="M265.32,150.7h-9.78v-9.08h9.78Zm0,4.4v37.16h-9.78V155.1Z"/><path class="cls-1" d="M278.59,160.48h.14c1.81-2.93,4.54-6.35,11.1-6.35,8.17,0,15.44,6.28,15.44,19.13,0,10.2-4.61,20-15.65,20-6.84,0-9.28-3.7-10.47-5.72H279v19.2h-9.78V155.1h9.36Zm8.59,24.72c6.29,0,8-6.84,8-11.24,0-5.87-2.09-11.38-8.31-11.38-6.7,0-8.31,6-8.31,11.94C278.59,180,281,185.2,287.18,185.2Z"/><path class="cls-1" d="M316,160.48h.14c1.82-2.93,4.54-6.35,11.11-6.35,8.17,0,15.43,6.28,15.43,19.13,0,10.2-4.61,20-15.64,20-6.85,0-9.29-3.7-10.48-5.72h-.14v19.2h-9.77V155.1H316Zm8.59,24.72c6.29,0,8-6.84,8-11.24,0-5.87-2.1-11.38-8.32-11.38-6.7,0-8.31,6-8.31,11.94C316,180,318.4,185.2,324.61,185.2Z"/><path class="cls-1" d="M354.37,150.7h-9.78v-9.08h9.78Zm0,4.4v37.16h-9.78V155.1Z"/><path class="cls-1" d="M392.08,192.26H382.3V169.7c0-2.72-.14-7.33-6.35-7.33-4.33,0-7.69,2.93-7.69,8.59v21.3h-9.77V155.1h9.36v5.45H368a12,12,0,0,1,11.17-6.42c7.26,0,12.92,4.26,12.92,12.43Z"/><path class="cls-1" d="M430,155.1v35.2c0,6.43-.49,17.11-18.79,17.11-7.68,0-15.78-3.28-16.2-11.17h10.62c.42,1.88,1.19,3.77,6.84,3.77,5.24,0,7.75-2.51,7.75-8.52V187l-.14-.14c-1.6,2.86-4.05,5.59-9.91,5.59-8.94,0-16-6.22-16-19.21s7.27-19.13,15.44-19.13c6.91,0,9.71,4.05,10.89,6.49h.14V155.1Zm-18,29.13c6.64,0,8.31-5.66,8.31-10.76,0-6-2.93-10.89-8.38-10.89-3.63,0-7.68,2.65-7.68,11.31C404.23,178.64,406.19,184.23,412,184.23Z"/></g></g></svg>