<?xml version="1.0" encoding="utf-8"?>
<!-- Generator: Adobe Illustrator 26.3.1, SVG Export Plug-In . SVG Version: 6.00 Build 0)  -->
<svg version="1.1" id="Capa_1" xmlns="http://www.w3.org/2000/svg" xmlns:xlink="http://www.w3.org/1999/xlink" x="0px" y="0px"
	 viewBox="0 0 40.4 40.4" style="enable-background:new 0 0 40.4 40.4;" xml:space="preserve">
<style type="text/css">
	.st0{fill:#82BED1;}
	.st1{fill:#3D4287;}
</style>
<circle class="st0" cx="20.2" cy="20.2" r="20.2"/>
<path class="st1" d="M34,28.7l-2.2-4.4l-4.7,1.9l0.4,1l3.1-1.3c-1.5,4.2-5.4,7.3-10.1,7.6V14.3c2.1-0.3,3.7-2.1,3.7-4.2
	c0-2.4-1.9-4.3-4.3-4.3s-4.3,1.9-4.3,4.3c0,2.2,1.6,4,3.7,4.2v19.2c-4.6-0.2-8.5-3.3-10-7.5l2.9,1.2l0.4-1l-4.7-1.9L6,28.7l1,0.5
	l1.5-3.1c1.6,4.9,6.2,8.5,11.7,8.5s9.9-3.4,11.6-8.2l1.4,2.8L34,28.7L34,28.7L34,28.7z M16.9,10.1c0-1.8,1.4-3.2,3.2-3.2
	s3.2,1.4,3.2,3.2s-1.4,3.2-3.2,3.2C18.4,13.3,16.9,11.8,16.9,10.1z"/>
</svg>
