<?xml version="1.0" encoding="UTF-8"?><svg id="Capa_1" xmlns="http://www.w3.org/2000/svg" viewBox="0 0 28.05 28.79"><defs><style>.cls-1{fill:#3d4287;}</style></defs><path class="cls-1" d="M28.05,22.92l-2.17-4.41-4.71,1.92,.4,.99,3.15-1.28c-1.45,4.24-5.37,7.34-10.05,7.57V8.49c2.1-.26,3.73-2.05,3.73-4.23,0-2.36-1.91-4.26-4.26-4.26s-4.26,1.91-4.26,4.26c0,2.17,1.63,3.97,3.73,4.23V27.7c-4.64-.22-8.53-3.27-10.01-7.45l2.88,1.17,.4-.99-4.71-1.92L0,22.92l.96,.47,1.53-3.1c1.59,4.92,6.21,8.5,11.66,8.5s9.89-3.43,11.57-8.2l1.38,2.8,.96-.47h0ZM10.94,4.26c0-1.76,1.44-3.2,3.2-3.2s3.2,1.43,3.2,3.2-1.43,3.2-3.2,3.2-3.2-1.43-3.2-3.2Z"/></svg>