<?xml version="1.0" encoding="utf-8"?>
<!-- Generator: Adobe Illustrator 26.3.1, SVG Export Plug-In . SVG Version: 6.00 Build 0)  -->
<svg version="1.1" id="Capa_1" xmlns="http://www.w3.org/2000/svg" xmlns:xlink="http://www.w3.org/1999/xlink" x="0px" y="0px"
	 viewBox="0 0 40.4 40.4" style="enable-background:new 0 0 40.4 40.4;" xml:space="preserve">
<style type="text/css">
	.st0{fill:#82BED1;}
	.st1{fill:#3D4287;}
</style>
<circle class="st0" cx="20.2" cy="20.2" r="20.2"/>
<g>
	<path class="st1" d="M22.3,15c-1.7,0-3.1,1.4-3.1,3.2s1.4,3.1,3.1,3.1s3.1-1.4,3.1-3.1S24,15,22.3,15z M22.3,20.2
		c-1.2,0-2.1-0.9-2.1-2.1c0-1.2,0.9-2.1,2.1-2.1s2.1,0.9,2.1,2.1C24.4,19.3,23.5,20.2,22.3,20.2z"/>
	<path class="st1" d="M9.7,10.2V26h25.2V10.2H9.7z M33.8,13.8v11.1H10.8V11.3h23.1V13.8z"/>
	<path class="st1" d="M29.3,27H8.7V12.3h-1v15.7h25.2v-1L29.3,27L29.3,27z"/>
	<path class="st1" d="M27.2,29.1H6.6V14.4h-1v15.7h25.2v-1C30.7,29.1,27.2,29.1,27.2,29.1z"/>
	<path class="st1" d="M12.3,12.4h3.2v1.1h-3.2V12.4z"/>
	<path class="st1" d="M12.3,22.8h3.2v1.1h-3.2V22.8z"/>
	<path class="st1" d="M29.1,12.4h3.1v1.1h-3.1V12.4z"/>
	<path class="st1" d="M29.1,22.8h3.1v1.1h-3.1V22.8z"/>
</g>
</svg>
