<?xml version="1.0" encoding="UTF-8"?><svg id="Capa_1" xmlns="http://www.w3.org/2000/svg" viewBox="0 0 29.37 19.93"><defs><style>.cls-1{fill:#3d4287;}</style></defs><path class="cls-1" d="M16.78,4.72c-1.74,0-3.15,1.41-3.15,3.15s1.41,3.15,3.15,3.15,3.15-1.41,3.15-3.15-1.41-3.15-3.15-3.15Zm0,5.24c-1.16,0-2.1-.94-2.1-2.1s.94-2.1,2.1-2.1,2.1,.94,2.1,2.1-.94,2.1-2.1,2.1Z"/><path class="cls-1" d="M4.2,0V15.73H29.37V0H4.2ZM28.32,3.55V14.69H5.25V1.05H28.32V3.55Z"/><path class="cls-1" d="M23.75,16.79H3.15V2.1h-1.05v15.73H27.27v-1.05h-3.53Z"/><path class="cls-1" d="M21.65,18.88H1.05V4.2H0v15.73H25.18v-1.05h-3.53Z"/><path class="cls-1" d="M6.82,2.13h3.15v1.05h-3.15v-1.05Z"/><path class="cls-1" d="M6.82,12.59h3.15v1.05h-3.15v-1.05Z"/><path class="cls-1" d="M23.6,2.13h3.15v1.05h-3.15v-1.05Z"/><path class="cls-1" d="M23.6,12.59h3.15v1.05h-3.15v-1.05Z"/></svg>