<svg id="Uploaded_to_svgrepo.com" data-name="Uploaded to svgrepo.com" xmlns="http://www.w3.org/2000/svg" viewBox="0 0 27.76 32"><defs><style>.cls-1{fill:#82bed1;}.cls-2{fill:#85b24a;}.cls-3{fill:#384f97;}</style></defs><path class="cls-1" d="M18.78,31.48a.48.48,0,0,1-.48-.38L18,30l-.47.11a17,17,0,0,1-3.55.36,17.78,17.78,0,0,1-2.62-.2l-.45-.07-.22.89a.5.5,0,0,1-.49.38H6.28a.49.49,0,0,1-.39-.19.48.48,0,0,1-.09-.43l.59-2.39-.27-.2a8.23,8.23,0,0,1-3-3.73l-.09-.24L.87,23.7a.5.5,0,0,1-.37-.48V18.74a.5.5,0,0,1,.37-.48l2.19-.6.09-.23C4.62,13.7,8.68,11.48,14,11.48c6.33,0,10.69,3.07,11.39,8l0,.26,1.57.78a.51.51,0,0,1,.28.45.5.5,0,0,1-.28.45l-1.56.78,0,.26a8.26,8.26,0,0,1-2.71,5.17l-.23.21.76,3a.54.54,0,0,1-.09.43.51.51,0,0,1-.4.19Z"/><path class="cls-2" d="M12,14.5a2.5,2.5,0,1,1,4,0ZM12.5,7A2.5,2.5,0,1,0,10,9.5,2.5,2.5,0,0,0,12.5,7Zm6-4A2.5,2.5,0,1,0,16,5.5,2.5,2.5,0,0,0,18.5,3Z"/><path class="cls-3" d="M10,10A3,3,0,1,0,7,7,3,3,0,0,0,10,10Zm0-5A2,2,0,1,1,8,7,2,2,0,0,1,10,5Zm6,1a3,3,0,1,0-3-3A3,3,0,0,0,16,6Zm0-5a2,2,0,1,1-2,2A2,2,0,0,1,16,1ZM27.21,20.11l-1.33-.67c-.68-4.85-4.54-7.62-9.53-8.28A3,3,0,0,0,14,10a3,3,0,0,0-2.35,1.15c-4.18.55-7.58,2.6-9,6.11L.74,17.8a1,1,0,0,0-.74,1v4.48a1,1,0,0,0,.74,1l2,.54a8.74,8.74,0,0,0,3.13,4l-.51,2.06a1,1,0,0,0,1,1.24h3.94a1,1,0,0,0,1-.76l.11-.45A17,17,0,0,0,14,31a17.4,17.4,0,0,0,3.66-.38l.15.62a1,1,0,0,0,1,.76h3.94a1,1,0,0,0,1-1.24L23,28a8.78,8.78,0,0,0,2.87-5.47l1.33-.67A1,1,0,0,0,27.21,20.11ZM16,13a1.87,1.87,0,0,1-.28,1H12.28A1.87,1.87,0,0,1,12,13a2,2,0,0,1,4,0Zm9,8.9-.07.52a7.75,7.75,0,0,1-2.55,4.87l-.45.4L22.72,31H18.78l-.39-1.56-.94.21A16.75,16.75,0,0,1,14,30a18.35,18.35,0,0,1-2.55-.19l-.9-.14L10.22,31H6.28L7,28.28l-.55-.39a7.77,7.77,0,0,1-2.79-3.52l-.19-.46L3,23.77,1,23.24V18.76l2-.53.48-.14.19-.46c1.11-2.82,3.83-4.71,7.48-5.36A2.8,2.8,0,0,0,11.18,14H10v1h8V14H16.82a2.83,2.83,0,0,0,.08-1.74c3.82.69,7.36,2.86,8,7.32l.07.52,1.8.9Z"/></svg>