<?xml version="1.0" encoding="UTF-8"?><svg id="Capa_1" xmlns="http://www.w3.org/2000/svg" viewBox="0 0 23.08 29.89"><defs><style>.cls-1{fill:#3d4287;}</style></defs><path class="cls-1" d="M3.15,13.11c0,5.5,4.46,9.97,9.97,9.97s9.97-4.46,9.97-9.97S18.62,3.15,13.12,3.15,3.15,7.61,3.15,13.11ZM13.12,4.19c4.92,0,8.92,4,8.92,8.92s-4,8.92-8.92,8.92S4.2,18.03,4.2,13.11,8.2,4.19,13.12,4.19Z"/><path class="cls-1" d="M19.06,24.81l.5,1.02,.94-.47-1.43-2.88-.94,.47,.45,.92c-1.69,.86-3.57,1.32-5.48,1.32-6.66,0-12.07-5.42-12.07-12.07C1.05,8.57,3.62,4.41,7.63,2.36l.49,.98,.94-.47L7.63,0l-.94,.47,.47,.96C2.8,3.65,0,8.18,0,13.11c0,7.06,5.6,12.83,12.59,13.11v1.6c-2.42,.09-4.68,.84-6.59,2.08h2.19c1.5-.67,3.16-1.05,4.91-1.05s3.38,.37,4.9,1.05h2.2c-1.94-1.25-4.2-1.98-6.57-2.08v-1.6c1.89-.08,3.74-.55,5.42-1.41h0Z"/></svg>