<?xml version="1.0" encoding="utf-8"?>
<!-- Generator: Adobe Illustrator 26.3.1, SVG Export Plug-In . SVG Version: 6.00 Build 0)  -->
<svg version="1.1" id="Capa_1" xmlns="http://www.w3.org/2000/svg" xmlns:xlink="http://www.w3.org/1999/xlink" x="0px" y="0px"
	 viewBox="0 0 40.4 40.4" style="enable-background:new 0 0 40.4 40.4;" xml:space="preserve">
<style type="text/css">
	.st0{fill:#82BED1;}
	.st1{fill:#3D4287;}
</style>
<g>
	<circle class="st0" cx="20.2" cy="20.2" r="20.2"/>
	<g>
		<path class="st1" d="M11.8,18.4c0,5.5,4.5,10,10,10s10-4.5,10-10s-4.5-10-10-10S11.8,12.9,11.8,18.4z M21.8,9.4
			c4.9,0,8.9,4,8.9,8.9s-4,8.9-8.9,8.9s-8.9-4-8.9-8.9S16.9,9.4,21.8,9.4z"/>
		<path class="st1" d="M27.7,30.1l0.5,1l0.9-0.5l-1.4-2.9l-0.9,0.5l0.5,0.9c-1.7,0.9-3.6,1.3-5.5,1.3c-6.7,0-12.1-5.4-12.1-12.1
			c0-4.5,2.6-8.7,6.6-10.8l0.5,1l0.9-0.5l-1.4-2.9l-0.9,0.5l0.5,1c-4.4,2.2-7.2,6.8-7.2,11.7c0,7.1,5.6,12.8,12.6,13.1v1.6
			c-2.4,0.1-4.7,0.8-6.6,2.1h2.2c1.5-0.7,3.2-1,4.9-1s3.4,0.4,4.9,1h2.2c-1.9-1.2-4.2-2-6.6-2.1v-1.6C24.2,31.4,26,30.9,27.7,30.1
			L27.7,30.1L27.7,30.1z"/>
	</g>
</g>
</svg>
