<svg id="Uploaded_to_svgrepo.com" data-name="Uploaded to svgrepo.com" xmlns="http://www.w3.org/2000/svg" viewBox="0 0 28 28"><defs><style>.cls-1{fill:#85b24a;}.cls-2{fill:#82bed1;}.cls-3{fill:#384f97;}</style></defs><path class="cls-1" d="M14,27.5A13.5,13.5,0,1,1,27.5,14,13.52,13.52,0,0,1,14,27.5Zm0-19A5.5,5.5,0,1,0,19.5,14,5.51,5.51,0,0,0,14,8.5Z"/><path class="cls-2" d="M26.68,9.4l-7.3,3.44a5.53,5.53,0,0,0-1.7-2.91l6.65-4.61A13.79,13.79,0,0,1,26.68,9.4Zm-16.75.92a5.53,5.53,0,0,1,2.91-1.7L9.4,1.32A13.4,13.4,0,0,0,5.32,3.68ZM3.68,22.68l6.64-4.61a5.53,5.53,0,0,1-1.7-2.91L1.32,18.6A13.4,13.4,0,0,0,3.68,22.68Zm14.39-5a5.53,5.53,0,0,1-2.91,1.7l3.44,7.3a13.58,13.58,0,0,0,4.08-2.35Z"/><path class="cls-3" d="M14,0A14,14,0,1,0,28,14,14,14,0,0,0,14,0Zm4.46,10,5.76-4a13,13,0,0,1,1.83,3.14l-6.35,3A6,6,0,0,0,18.46,10ZM18,18.46l4,5.76a13,13,0,0,1-3.14,1.83l-3-6.35A6,6,0,0,0,18,18.46ZM14,19a5,5,0,1,1,5-5A5,5,0,0,1,14,19ZM9.54,18,3.78,22A13,13,0,0,1,2,18.86l6.35-3A6,6,0,0,0,9.54,18ZM10,9.54,6,3.78A13,13,0,0,1,9.14,2l3,6.35A6,6,0,0,0,10,9.54ZM23.57,5.23,17.72,9.3A6,6,0,0,0,14,8a6.25,6.25,0,0,0-.87.07l-3-6.47A13,13,0,0,1,23.57,5.23ZM5.23,4.43,9.3,10.28A6,6,0,0,0,8,14a6.25,6.25,0,0,0,.07.87l-6.47,3A13,13,0,0,1,5.23,4.43Zm-.8,18.34,5.85-4.07A6,6,0,0,0,14,20a6.25,6.25,0,0,0,.87-.07l3,6.47A13,13,0,0,1,4.43,22.77Zm18.34.8L18.7,17.72A6,6,0,0,0,20,14a6.25,6.25,0,0,0-.07-.87l6.47-3a13,13,0,0,1-3.63,13.48Z"/></svg>