<?xml version="1.0" encoding="UTF-8"?><svg id="Capa_1" xmlns="http://www.w3.org/2000/svg" viewBox="0 0 20.26 26.66"><defs><style>.cls-1{fill:#3d4287;}</style></defs><path class="cls-1" d="M20.26,3.2h-5.33v-1.07c0-1.18-.95-2.13-2.13-2.13H7.46c-1.18,0-2.13,.95-2.13,2.13v1.07H0v1.07H1.1l1.07,20.26c0,1.18,.95,2.13,2.13,2.13h11.73c1.18,0,2.13-.95,2.13-2.13l1.05-20.26h1.05v-1.07h0ZM6.4,2.13c0-.59,.48-1.07,1.07-1.07h5.33c.59,0,1.07,.48,1.07,1.07v1.07H6.4v-1.07h0Zm10.7,22.34v.06c0,.59-.48,1.07-1.07,1.07H4.3c-.59,0-1.07-.48-1.07-1.07v-.06L2.17,4.26h15.98l-1.05,20.2Z"/><path class="cls-1" d="M9.6,6.4h1.07V23.46h-1.07V6.4Z"/><path class="cls-1" d="M7.49,23.42L6.4,6.39l-1.06,.07,1.09,17.03,1.06-.07Z"/><path class="cls-1" d="M14.93,6.43l-1.06-.07-1.08,17.06,1.06,.07,1.08-17.06Z"/></svg>