<svg id="Uploaded_to_svgrepo.com" data-name="Uploaded to svgrepo.com" xmlns="http://www.w3.org/2000/svg" viewBox="0 0 25 26"><defs><style>.cls-1{fill:#82bed1;}.cls-2{fill:#85b24a;}.cls-3{fill:#384f97;}</style></defs><path class="cls-1" d="M6.5.87V7.5a6,6,0,0,0,12,.28Z"/><path class="cls-2" d="M12.5,24.3,12,22.6A12.54,12.54,0,0,0,.51,13.51c.22,7,5,12,11.49,12h1c6.51,0,11.27-5,11.49-12A12.55,12.55,0,0,0,13,22.6Z"/><path class="cls-1" d="M12.5,4.33l6-3.46V7.5a2.62,2.62,0,0,1,0,.28Z"/><path class="cls-3" d="M13,21V14A6.5,6.5,0,0,0,19,7.5V0L12.5,3.75,6,0V7.5A6.5,6.5,0,0,0,12,14v7A13,13,0,0,0,0,13c0,7.18,4.82,13,12,13h1c7.18,0,12-5.82,12-13A13,13,0,0,0,13,21Zm-8.95.53A12.46,12.46,0,0,1,1,14,12,12,0,0,1,12,25,10.38,10.38,0,0,1,4.05,21.53ZM18,1.73V6.92L13.5,4.33Zm-11,0L18,8.06h0A5.5,5.5,0,0,1,7,7.5ZM13,25A12,12,0,0,1,24,14C23.53,20.44,19.07,25,13,25Z"/></svg>